<svg xmlns="http://www.w3.org/2000/svg" viewBox="0 0 274.64359 279.35519" height="279.355" width="274.644"><path d="M240.707 275.253c-2.053-2.438-13.078-14.293-24.5-26.344-11.423-12.052-27.06-28.635-34.75-36.852-22.962-24.532-29.84-31.474-33.297-33.612-6.02-3.72-15.067-5.81-25.22-5.83-11.716-.02-17.05-2.214-24.65-10.133-5.58-5.817-14.577-18.767-16.902-24.33-2.772-6.635-1.463-11.535 3.08-11.535 1.172 0 7.27 3.38 13.55 7.51 6.282 4.132 12.226 7.768 13.21 8.08 2.012.64 8.992-2.656 12.56-5.932 3.657-3.356 9.194-14.925 10.73-22.416 1.082-5.28-4.23-10.47-21.963-21.462-6.004-3.722-7.616-5.22-7.616-7.08 0-4.313 3.65-5.2 21.405-5.2h16.094l7.293 3.898c7.615 4.068 13.648 9.93 16.853 16.377 1.468 2.953 1.81 5.695 1.652 13.225-.11 5.287.45 12.663 1.266 16.63 2.346 11.413 4.243 14.32 22.44 34.417 4.754 5.25 49.537 53.338 66.335 71.232 16.668 17.755 16.834 17.976 16.175 21.58-2.023 11.07-12.484 20.107-25.016 21.61-4.95.592-5.04.554-8.733-3.834zM115.94 260.94c-7.324-1.187-10-5.17-10-14.872 0-6.176-.233-6.88-3.25-9.865-1.99-1.966-6.94-4.685-12.75-7-12.747-5.077-16.01-4.758-23.468 2.296-4.544 4.296-6.02 5.118-9.184 5.118-3.513 0-4.72-.95-17.7-13.93l-13.93-13.93.545-4.077c.415-3.088 1.78-5.424 5.64-9.65 6.4-7.002 6.492-9.023.99-22.13-5.332-12.696-7.952-15.262-15.66-15.338-7.393-.073-12.024-1.74-14.64-5.267C.662 149.773.4 147.81.077 133.885c-.23-10.008.056-16.977.805-19.474 1.667-5.564 5.738-7.783 14.29-7.788 9.112-.005 11.333-2.105 16.834-15.924 5.324-13.37 5.11-15.914-1.974-23.667-4.362-4.77-5.094-6.153-5.094-9.605 0-3.832.662-4.705 13.418-17.646 12.73-12.915 13.623-13.616 17.36-13.616 3.358 0 4.792.776 9.662 5.227 5.082 4.646 6.21 5.228 10.12 5.228 2.883 0 7.882-1.438 14.5-4.17 12.956-5.352 14.588-7.305 15.105-18.076.325-6.768.705-8.08 3.003-10.378 2.284-2.283 3.865-2.75 11.98-3.533 10.283-.99 24.778-.312 29.148 1.366 3.704 1.422 5.703 5.55 5.703 11.775 0 5.665 1.748 10.652 4.637 13.22 2.638 2.347 21.48 9.798 24.776 9.798 3.708 0 7.387-2.114 12.04-6.917 3.315-3.424 4.59-4.082 7.916-4.082 3.745 0 4.7.73 17.338 13.244 7.356 7.285 13.63 14.26 13.94 15.5.957 3.808-.483 7.052-5.672 12.78-6.366 7.03-6.438 9.46-.693 23.41 5.36 13.013 6.905 14.33 17.77 15.127 6.393.47 8.41 1.027 10.37 2.867 3.395 3.19 5.038 13.575 4.2 26.57-.83 12.895-1.323 14.927-4.373 17.977-2.19 2.19-3.398 2.524-9.153 2.524-10.702 0-12.674 1.57-18.336 14.6-2.605 5.995-4.743 12.44-4.75 14.325l-.01 3.424-2.62-2.424c-1.44-1.334-7.988-8.375-14.55-15.65l-11.932-13.222 2.26-7.276c1.837-5.914 2.25-9.52 2.205-19.276-.05-10.74-.376-12.915-3.115-20.712-4.006-11.41-8.948-19.375-17.037-27.464-17.2-17.202-40.998-24.694-62.9-19.802-27.59 6.163-48.47 26.426-54.857 53.236-2.237 9.392-1.536 27.967 1.37 36.282 11.938 34.172 44.875 54.143 79.176 48.005 3.574-.64 7.916-1.66 9.65-2.268 3.073-1.08 3.29-.95 8.987 5.31 3.21 3.527 9.182 9.9 13.27 14.16 4.087 4.26 7.243 7.885 7.012 8.055-.232.17-3.57 1.558-7.42 3.086-16.302 6.466-18.5 8.808-18.5 19.705 0 11.936-3.645 13.897-25.5 13.73-6.6-.052-13.126-.276-14.5-.5z" fill="#545454"/></svg>