<svg xmlns="http://www.w3.org/2000/svg" viewBox="0 0 280.93314 279.12625" height="279.126" width="280.933"><path d="M32 264.563V250h38.24l-.724 13.75c-.4 7.563-.94 13.975-1.202 14.25-.26.275-8.54.64-18.395.813l-17.92.313v-14.563zm178-.063V250h37v29h-37v-14.5zM7.786 244.287C4.433 243.777 0 238.7 0 235.374c0-4 2.688-8.07 6.12-9.266 2.263-.79 40.716-1.108 133.56-1.108 139.71 0 135.566-.145 138.24 4.85 1.923 3.593 1.277 8.762-1.51 12.073L273.823 245l-131.66-.15c-72.415-.082-132.883-.336-134.376-.563zm12.235-25.38c.013-.774 7.838-27.057 17.39-58.407l17.37-57h169.563l17.498 57.247c9.624 31.486 17.232 57.515 16.905 57.84-.326.328-54.177.85-119.67 1.16-101.906.483-119.072.362-119.054-.84zm169.6-14.193c.774-.775-.27-5.062-11.298-46.353l-8.583-32.137-29.413-.736c-16.177-.404-29.7-.45-30.05-.1-.708.71-21.27 76.412-21.275 78.327 0 .842 2.983 1.334 9.748 1.605 15.216.61 90.152.112 90.87-.606zm50.415-76.568c-1.442-6.013-2.88-3.024 17.796-37C263.975 81.05 269 72.476 269 72.086c0-.387-11.472-5.128-25.493-10.535-14.022-5.405-25.948-10.377-26.504-11.046-1.16-1.4-.213-7.504 1.166-7.504 2.348 0 59.528 22.316 62.12 24.244 1.525 1.135.814 2.697-7.396 16.256-14.478 23.91-27.646 44.972-29.706 47.516l-1.9 2.348-1.253-5.218zM181 60.962c-15.125-5.958-27.94-11.01-28.48-11.224-1.347-.538.803-3.67 15.84-23.083L181.41 9.81l3.545.58c3.937.643 27.03 9.285 28.443 10.644.887.852-1.94 46.607-3.06 49.526-.303.792-.84 1.394-1.195 1.337-.354-.056-13.018-4.977-28.143-10.935zm18-50.25c-5.32-2.01-8.5-3.758-8.5-4.672 0-2.104 6.296-6.04 9.663-6.04 4.137 0 9.743 5.47 10.503 10.25.756 4.76-.19 4.797-11.666.46z" fill="#545454"/></svg>