<svg xmlns="http://www.w3.org/2000/svg" viewBox="0 0 607.75281 283.25656" height="283.257" width="607.753"><path d="M304.004 279.425c-4.56-9.7-42.358-81.195-42.947-81.233-.365-.024-9.082 8.616-19.372 19.198l-18.707 19.242-110.467-.93c-60.755-.51-110.925-1.214-111.488-1.56C.352 233.725 0 211.907 0 170.6v-62.905l11.376-4.23c6.257-2.33 71.83-26.56 145.717-53.85L291.433 0l38.582 13.282c21.22 7.305 44.27 15.24 51.22 17.637 6.953 2.395 28.682 9.832 48.287 16.527L465.17 59.62V22.28h40.448v51.132l7.837 2.664c4.31 1.466 26.67 9.06 49.69 16.877 23.02 7.817 42.093 14.453 42.388 14.747.294.294-37.425.5-83.82.455-46.394-.044-83.898-.267-83.342-.495.557-.228 16.91-3.616 36.344-7.527 19.433-3.912 35.482-7.263 35.665-7.446.74-.74-20.25-9.525-113.923-47.68C342.554 23.052 297.42 5.09 296.157 5.09c-1.26 0-11.19 3.232-22.062 7.183-25.328 9.205-239.534 88.404-262.213 96.95l-5.815 2.19v113.114h212.849l22.47-22.454c12.36-12.35 22.692-22.232 22.962-21.962.27.27 10.126 18.907 21.902 41.415 11.777 22.508 21.768 41.31 22.202 41.786.435.475 9.396-7.83 19.914-18.454l19.123-19.318H607.752v9.788l-27.468.668c-15.107.367-72.554.668-127.66.668H352.432l-23.314 23.297-23.313 23.297-1.8-3.832zm119.704-94.336V146.66h13.147v3.54c0 4.19.85 4.41 4.02 1.036 3.286-3.497 10.27-5.972 15.042-5.332 13.485 1.81 21.29 13.884 20.11 31.11-1.608 23.45-18.672 33.255-35.886 20.62l-2.275-1.67V223.517H423.707V185.09zM455.643 190c7.806-3.81 8.614-23.493 1.22-29.716-5.133-4.318-14.174-2.683-16.778 3.033-1.69 3.705-1.55 18.173.205 21.568 3.433 6.64 8.66 8.38 15.353 5.114zM41.13 201.912c-6.783-1.92-12.655-6.323-17.094-12.82-5.277-7.722-7.214-16.103-6.613-28.598.437-9.074.82-10.603 4.42-17.667 6.716-13.172 15.35-17.95 32.258-17.855 7.792.044 9.932.452 14.87 2.83 7.225 3.485 14.117 11.002 17.103 18.656 1.84 4.713 2.262 7.887 2.318 17.395.06 10.017-.267 12.47-2.358 17.696-3.09 7.72-12.92 17.96-18.843 19.626-6.674 1.878-20.627 2.27-26.06.735zm19.324-13.338c8.696-3.632 12.63-11.315 12.61-24.624-.018-10.437-1.678-15.916-6.19-20.427-7.208-7.208-18.708-7.75-26.437-1.246-4.8 4.038-7.21 9.75-7.81 18.51-.93 13.587 3.495 23.444 12.33 27.457 5.03 2.284 10.54 2.4 15.497.33zm259.432 13.805c-19.276-4.944-28.973-28.597-21.96-53.563 2.71-9.647 9.193-17.498 17.58-21.29 3.564-1.61 6.694-2.062 14.442-2.08 10.522-.023 14.712 1.1 20.452 5.477 3.136 2.392 10.3 14.363 9.235 15.43-.308.307-3.406 1.216-6.885 2.02l-6.325 1.46-2.033-2.85c-5.003-7.015-9.265-9.423-16.68-9.423-3.68 0-11.746 5.278-13.628 8.917-2.575 4.98-3.764 15.403-2.65 23.246 1.727 12.188 4.15 16.093 11.8 19.014 6.785 2.59 12.123 1.458 16.813-3.57 2.1-2.25 4.102-5.513 4.45-7.25.577-2.888.903-3.113 3.826-2.64 6.007.976 10.666 3.49 10.666 5.755 0 6.116-7.908 15.995-15.415 19.26-5.75 2.5-17.906 3.57-23.69 2.087zm184.018-.196c-5.314-1.268-14.068-8.93-16.62-14.546-2.838-6.25-2.59-19.72.49-26.313 8.468-18.15 34.303-20.993 46.323-5.098 4.733 6.26 6.3 11.925 5.685 20.54-.724 10.112-5.513 18.396-13.26 22.936-5 2.93-15.782 4.113-22.618 2.48zm13.42-11.933c9.737-4.42 11.39-21.89 2.786-29.445-8.826-7.75-20.56-.088-20.56 13.427 0 6.806 2.08 12.073 5.794 14.673 5.28 3.698 6.5 3.835 11.98 1.346zm-416.2-26.428V125.11l21.804.604c19.315.534 22.304.845 26.18 2.72 11.188 5.417 13.647 19.764 5.023 29.31l-3.51 3.887 3.6 2.226c5.765 3.564 8.59 8.577 8.59 15.25 0 7.294-1.514 11.72-5.446 15.93-5.926 6.342-6.907 6.553-32.73 7.048l-23.51.45v-38.712zm44.187 21.84c2.155-2.504 2.47-3.678 2.036-7.544-.855-7.586-3.67-8.733-23.217-9.462l-7.838-.292v20.973l13.234-.355c13.2-.353 13.24-.36 15.785-3.32zm-4.506-31.074c.968-.5 2.482-2.306 3.366-4.015 1.33-2.57 1.395-3.62.377-6.078-2.14-5.165-4.295-5.923-16.85-5.923H116.29v18.311l11.377-.694c6.256-.382 12.167-1.103 13.134-1.602zm35.15 9.265v-38.427h15.169v16.18c0 14.01.212 16.18 1.583 16.18 3.705 0 5.96-2.758 11.035-13.49 7.293-15.424 11.405-18.87 22.515-18.87h4.305v11.122h-3.483c-4.985 0-8.202 3.312-11.758 12.1-1.68 4.153-4.185 9.033-5.568 10.846l-2.514 3.296 3.953 3.57c4.242 3.833 18.358 29.813 18.358 33.79 0 1.983-.54 2.13-7.868 2.13h-7.87l-5.456-11.727c-3-6.45-6.77-13.71-8.374-16.132-3.153-4.758-6.53-6.607-7.958-4.355-.478.754-.876 8.312-.885 16.793l-.016 15.422h-15.17v-38.427zm208.316 16.685v-21.74h-6.996c-9.86 0-10.195-.222-10.195-6.683v-5.453h48.538v11.042l-8.343.293-8.342.294-.273 21.995-.272 21.995H384.27v-21.742zm167.09-5.814l.27-27.557 6.825-.3 6.826-.298v16.867c0 19.747-1.3 19.94 12.567-1.86 8.305-13.056 9.04-13.905 12.044-13.915 1.76-.006 4.906-.293 6.992-.638l3.792-.627v55.883H587.576l-.277-17.444-.278-17.444-11.007 17.444-11.007 17.444H551.09l.27-27.556zm20.968-36.147c-1.408-.398-3.608-1.358-4.888-2.134-2.448-1.484-6.204-7.823-6.204-10.47 0-2.077 4.57-2.053 6.28.03 4.107 5.006 4.93 5.49 9.343 5.49 3.964 0 4.822-.425 7.237-3.59 2.094-2.746 3.356-3.52 5.36-3.287 2.112.245 2.568.782 2.348 2.764-.35 3.145-4.837 9.056-7.663 10.095-3.682 1.353-9.127 1.86-11.814 1.102z" fill="#414e5b"/></svg>