<svg xmlns="http://www.w3.org/2000/svg" viewBox="0 0 143.325 35.04086" height="35.041" width="143.325"><path d="M36 34.993l-4.05-.21c-17.007-.886-27.743-3.858-30.876-8.55C.3 25.073 0 24.087 0 22.696 0 16.916 7.39 11.86 21.685 7.86c4.48-1.254 11.024-2.666 16.04-3.462 1.327-.21 1.906-.39 2.96-.914.72-.358 1.416-.816 1.548-1.018.132-.2.86-.826 1.616-1.387L45.224.056l1.35-.043C47.85-.028 47.98-.002 48.9.468l.975.497-.015.935c-.008.52-.12 1.15-.252 1.42-.715 1.462-1.756 3.846-1.85 4.237-.22.917-.652 1.674-1.058 1.86-.325.148-.365.213-.193.32.186.115.178.207-.058.645-.152.28-.26.637-.24.793.02.155-.04.472-.137.705-.095.232-.173.553-.173.712 0 .16-.063.29-.14.29-.077 0-.184.14-.238.31-.062.196-.182.28-.32.227-.217-.084-1.102.285-1.102.46 0 .048.148.05.33 0 .646-.168.726.133.333 1.258-.585 1.673-.424 2.008.37.77.256-.4.67-.906.916-1.126.247-.22.45-.464.45-.54 0-.077.135-.182.3-.235.165-.052.3-.192.3-.31 0-.5 4.9-5.768 7.425-7.984.412-.362.92-.807 1.125-.99 1.105-.97 2.34-1.3 3.73-.994 1.43.313 1.67.44 1.67.89 0 .222-.077.48-.17.573-.095.094-.224.502-.288.906-.145.917-1.933 4.683-2.625 5.528-.285.346-.517.703-.517.793 0 .09-.135.415-.3.723-.165.308-.3.67-.3.8 0 .134-.135.365-.3.514-.324.294-.4.895-.136 1.06.182.112.886-.213.886-.41 0-.07-.105-.125-.234-.125-.128 0-.19-.07-.136-.157.066-.108.16-.104.302.013.24.2.865-.225 1.822-1.244.67-.713 1.8-1.74 2.716-2.474.376-.3.628-.637.658-.876.035-.29.273-.528.933-.937.84-.52.948-.547 2.026-.513 1.565.048 2.66.403 2.786.904.103.413-.556 1.93-1.172 2.696-.352.437-.47.67-1.003 1.988-.184.454-.377.86-.428.9-.145.116-1.486 2.876-1.604 3.3-.057.207-.512 1.185-1.01 2.175-1.238 2.46-1.39 2.913-1.214 3.613.075.3.166.37.407.306.3-.078.7.125.7.356 0 .214-1.725.263-2.625.075-1.073-.224-1.8-.62-2.017-1.092-.197-.432-.202-.828-.014-1.016.176-.178 1.956-4.103 1.956-4.316 0-.084.105-.27.233-.41.128-.142.244-.396.256-.565.012-.17.13-.337.262-.372.15-.04.36-.482.57-1.196.39-1.345.386-1.31.108-1.31-.12 0-.3.152-.395.338-.097.186-.57.742-1.05 1.237-2.642 2.72-3.202 3.32-3.73 3.99-.32.403-.887.987-1.26 1.297-.372.31-.8.8-.95 1.088-.15.29-.833 1.106-1.52 1.815-.687.71-1.328 1.445-1.425 1.636-.096.19-.544.546-.995.79-.653.35-.875.407-1.086.275-.147-.09-.44-.166-.65-.166-.495 0-1.51-.582-1.73-.992-.143-.27-.09-.427.352-1.05.287-.403.634-.935.773-1.183.138-.247.41-.713.604-1.035.194-.323.318-.677.275-.788-.045-.117.024-.202.164-.202.132 0 .24-.093.24-.206 0-.114.097-.288.216-.386.12-.1.176-.284.127-.412-.052-.135.016-.292.16-.373.138-.077.426-.49.64-.92.215-.427.54-.98.726-1.228.183-.247.496-.815.694-1.263.2-.447 1.154-2.4 2.123-4.34.97-1.94 1.763-3.613 1.763-3.715 0-.104-.15-.235-.334-.293-.263-.084-.398-.014-.637.327-.168.238-.743.875-1.28 1.415-.536.538-1.266 1.358-1.622 1.82-.355.46-.845 1.016-1.087 1.232-.242.216-.44.485-.44.598 0 .113-.11.297-.245.41-.135.11-.413.474-.616.805-.205.33-.584.815-.844 1.074-.26.258-.69.764-.956 1.124l-.975 1.31c-.27.36-.707.967-.972 1.35-.685.985-1.532 2.167-2.143 2.99-.635.853-.855 1.198-1.047 1.64-.08.187-.215.338-.3.338-.084 0-.153.094-.153.21 0 .114-.204.468-.454.787-.837 1.067-1.474 1.976-1.72 2.453-.378.728-1.57 1.8-2.002 1.8-.644 0-1.98-.496-2.36-.877-.47-.472-.458-.705.086-1.524.247-.37.454-.81.46-.975.007-.165.14-.502.3-.75.157-.247.4-.67.54-.937.14-.268.303-.488.362-.488.058 0 .15-.177.204-.394.055-.217.366-.958.692-1.647.325-.688.592-1.364.592-1.502 0-.138.18-.63.398-1.09.218-.463.605-1.28.86-1.816.252-.536.537-1.042.632-1.125.094-.082.21-.285.254-.45.095-.346 1.33-3.465 1.9-4.8.072-.165.286-.696.478-1.18.192-.485.426-.91.522-.947.095-.037.14-.198.097-.358-.04-.16-.01-.375.073-.478.08-.103.227-.434.325-.736.097-.302.27-.585.383-.628.123-.047.174-.203.127-.383-.05-.193.34-1.176 1.076-2.7.635-1.32 1.11-2.47 1.057-2.556-.178-.288-.802-.166-1.103.217-.162.207-.39.375-.506.375-.115 0-.29.08-.39.18-.1.1-.18.126-.18.06 0-.068-.14.037-.31.23-.198.228-.336.292-.384.18-.074-.18-.672.14-1.584.846-.694.536-1.31.707-4.322 1.196-9.09 1.478-17.465 3.528-23.4 5.728-2.647.982-6.46 2.85-8.25 4.04C2.086 18.05.133 21.82 1.498 24.705c2.03 4.293 8.88 6.9 21.902 8.342 11.558 1.278 24.558 1.473 40.725.61 24.773-1.322 42.1-3.48 56.1-6.99 5.84-1.464 9.82-2.843 13.8-4.78 3.01-1.465 4.93-2.724 6.387-4.187 2.59-2.6 2.682-4.99.285-7.392-4.442-4.455-15.74-7.275-33.522-8.37-10.875-.67-25.007-.64-36.573.074-4.936.305-4.602.325-4.602-.276V1.24l3.337-.18C77.942.598 81.115.518 90.75.517c11.127 0 15.666.177 23.175.9 16.447 1.587 26.53 5.096 28.98 10.087.38.77.42 1.008.42 2.428 0 1.51-.022 1.616-.52 2.55-3.76 7.057-22.604 12.952-51.53 16.12-8.713.953-16.626 1.55-28.125 2.118-4.32.214-24.428.416-27.15.273zm-11.398-10.43c-1.995-.334-2.852-1.246-2.852-3.036 0-2.41 1.46-4.795 3.507-5.73 2.322-1.06 5.768-1.112 6.882-.104.343.31.465.16.72-.9.384-1.604-.074-1.847-3.226-1.712-2.336.102-3.046.235-4.33.81-.858.385-.876.387-1.154.104-.276-.28-.262-.324.724-2.162l1.005-1.875 3.672.05c2.02.026 4.068.108 4.55.18 1.162.176 2.113.653 2.615 1.312.38.5.407.632.4 1.97-.01 1.36-.088 1.7-1.433 6.312l-1.423 4.875-4.417.02c-2.43.013-4.788-.04-5.24-.115zm4.695-2.59c.48-.113 1.045-.365 1.257-.56.514-.474.94-1.426.943-2.115.005-.854-.432-1.07-1.987-.985-2.14.117-3.18.94-3.183 2.517-.002.796.018.837.523 1.09.63.314 1.277.328 2.447.053zM69.615 24.5c-1.878-.408-2.61-1.27-2.59-3.053.027-2.35 1.492-4.722 3.475-5.625 2.375-1.08 5.812-1.15 6.93-.137.327.295.315.307.623-.617.326-.977.31-1.33-.07-1.675-.284-.256-.558-.285-2.662-.276-2.475.01-3.63.206-4.94.838-.617.298-.657.3-.937.046-.288-.26-.28-.292.625-2.003.505-.957.994-1.818 1.087-1.914.27-.278 8.366-.01 9.217.304 1.53.565 2.123 1.432 2.12 3.095-.002.784-.29 1.975-1.475 6.075l-1.473 5.1-4.485.027c-3.364.02-4.725-.026-5.445-.183zm4.982-2.527c.99-.234 1.52-.65 1.92-1.516.366-.793.36-1.498-.017-1.875-.24-.24-.5-.3-1.312-.3-2.392.003-3.734 1.027-3.608 2.752.04.543.112.657.57.886.63.314 1.277.328 2.447.053zm7.27 1.897c.136-.474 1.467-5.08 2.96-10.238l2.712-9.375 2.147-.04c1.692-.034 2.134-.002 2.083.15-.037.104-1.375 4.73-2.975 10.278l-2.91 10.087h-4.263l.246-.862zm8.983-4.197c-.055-2.786-.1-6.095-.1-7.353v-2.288h4.196l.04 5.06.04 5.057 2.786-5.022 2.787-5.02 2.2-.042c1.21-.023 2.2.01 2.2.075-.002.065-1.877 3.357-4.17 7.317l-4.165 7.2-2.858.04-2.858.042-.1-5.067zm14.825 4.966c-.165-.034-.64-.13-1.058-.213-.894-.18-1.81-.87-2.11-1.59-.426-1.02-.168-2.854.62-4.405 1.175-2.316 3.703-3.543 7.05-3.423 1.31.045 1.592.105 2.2.46l.696.41.238-.7c.133-.386.24-.93.24-1.207 0-.726-.594-.94-2.6-.94-1.925 0-3.937.337-5.085.852-.82.368-.885.376-1.15.137-.27-.245-.246-.313.692-2.084.533-1.007 1.014-1.874 1.07-1.928.053-.054 1.988-.047 4.298.015 3.778.102 4.284.146 5.035.436.46.178 1.008.51 1.22.735 1.18 1.267 1.127 1.897-.707 8.325l-1.488 5.212-4.43-.017c-2.436-.01-4.565-.044-4.73-.076zm4.92-2.88c.835-.368 1.336-1.148 1.425-2.212.06-.718.03-.808-.33-1.044-.628-.412-2.675-.256-3.577.273-.982.576-1.552 1.858-1.216 2.735.27.705 2.352.845 3.7.25z" fill="#4b4b4b"/></svg>