<svg xmlns="http://www.w3.org/2000/svg" viewBox="0 0 351.05621 167.80365" height="167.804" width="351.056"><path d="M157.487 167.186c-44.922-3.955-94.738-25.382-126.113-54.244l-9.02-8.297-2.016 4.75c-1.11 2.612-3.47 10.374-5.247 17.25-1.775 6.874-3.562 12.896-3.97 13.38-.407.487-3.176.265-6.152-.49-5.33-1.353-5.398-1.44-4.594-5.727 4.45-23.72 18.87-54.157 34.57-72.978l4.85-5.814-1.19-8.56c-.656-4.71-1.317-12.707-1.47-17.772-.31-10.387-.093-10.677 9.02-12.036 5.325-.795 5.822-.638 6.546 2.068.432 1.61.792 6.63.8 11.157.01 4.527.383 8.595.83 9.04.445.446 3.033-1.196 5.75-3.65 7.477-6.757 33.263-22.994 36.514-22.994 2.552 0-.705 3.258-9.227 9.23-5.445 3.815-14.84 11.65-20.88 17.41L55.51 49.38l2.214 10.508c4.542 21.548 11.53 42.31 20.414 60.635l5.515 11.38 12.12 5.778c23.17 11.048 45.75 17.818 71.31 21.384 14.985 2.09 46.657 2.507 57.06.752 6.84-1.154 10.483.37 5.454 2.28-11.137 4.235-50.37 7.004-72.11 5.09zM53.073 103.903c-1.77-4.68-4.69-13.852-6.487-20.384-4.546-16.52-4.182-15.636-5.78-14.037-.76.76-3.82 5.49-6.797 10.513l-5.415 9.13L33.87 94.6c6.624 6.87 21.168 19.067 21.884 18.35.296-.295-.91-4.366-2.68-9.047zm285.004 38.105c-3.762-13.886-13.225-36.7-19.674-47.433-18-29.95-46.038-56.616-74.572-70.915-5.67-2.843-10.312-5.725-10.312-6.405 0-1.79 1.614-1.548 8.92 1.33 51.985 20.492 91.65 63.972 106.518 116.762 3.354 11.908 3.345 11.93-4.906 13.7-3.82.82-3.856.78-5.973-7.04zm-189.6-18.67c-2.916-3.682-5.924-7.678-6.682-8.88-2.45-3.89-3.254-2.353-2.95 5.624l.298 7.812h-16.25l-.167-22.812-.168-22.813h17.456l-.87 7.5c-.48 4.124-.394 7.482.19 7.46.582-.02 2.89-2.41 5.128-5.312 2.238-2.9 5.193-6.603 6.566-8.23l2.497-2.954 5.31 4.754c5.845 5.234 6.777 6.663 5.148 7.894-.6.453-3.317 3.204-6.04 6.113l-4.948 5.29 6.75 6.837c3.714 3.76 6.493 6.99 6.177 7.18-.316.188-3.177 2.792-6.357 5.785l-5.782 5.443-5.305-6.693zm74.416 2.722c-10.19-4.9-13.132-9.25-13.104-19.38.044-16.472 13.213-27.263 30.617-25.088 11.288 1.41 18.238 7.826 20.04 18.502 3.29 19.458-19.015 34.88-37.554 25.966zm17.292-12.31c2.528-2.794 3.89-9.098 2.854-13.222-1.732-6.897-8.563-9.218-13.272-4.51-3.244 3.246-3.514 14.31-.43 17.715 2.65 2.93 8.204 2.938 10.847.017zm38.333 13.3c-9.04-2.568-16.28-10.672-16.222-18.156.04-5.285 4.105-13.17 8.857-17.19 4.357-3.683 14.252-8.672 19.96-10.062 3.055-.744 3.303-.42 4.8 6.268.868 3.88 1.387 7.19 1.154 7.356-.233.166-2.883 1.01-5.89 1.874-15.074 4.334-14.886 16.68.263 17.174l6.453.21.375 6.998.375 6.997-7.875-.113c-4.33-.062-9.843-.673-12.25-1.356zm-195-22.28v-22.5h9.774c18.25 0 27.726 5.084 27.726 14.878 0 8.24-6.875 15.204-19.062 19.306-1.6.54-2.188 2.09-2.188 5.776v5.04h-16.25v-22.5zm19.75-1.5c2.325-2.325 1.773-7.017-1-8.5-2.33-1.247-2.5-.95-2.5 4.33 0 5.8.854 6.816 3.5 4.17zm76.5 8.43V96.02h-12.5V82.268h42.5V96.018h-13.88l.217 15.312.215 15.312-8.276.37-8.276.37V111.7zm-52.493-38.067c-4.273-1.162-4.557-4.427-.777-8.92 3.82-4.538 5.1-10.47 3.937-18.23-1.236-8.24-4.905-11.184-16.053-12.883-21.347-3.254-25.868-5.008-24.19-9.383.388-1.01 3.01-3.01 5.826-4.448 2.817-1.438 5.428-3.41 5.802-4.386.692-1.802 12.26-6.666 17.947-7.546 1.72-.266 7.88-1.354 13.693-2.418 8.482-1.552 11.934-1.655 17.5-.523 9.264 1.884 9.243 1.885 20.54-1.174C176.92 2.255 184.813.7 189.04.267c26.48-2.713 46.108 15.655 39.005 36.5-2.815 8.26-2.625 9.527 2.42 16.136 6.036 7.908 5.665 12.545-1.322 16.534-5.76 3.29-12.266 3.332-12.88.086-.27-1.428 1.28-2.98 4.737-4.744 2.827-1.444 5.452-3.435 5.832-4.427.38-.992-1.053-4.438-3.186-7.658-4.418-6.67-4.6-8.067-2.003-15.426 2.538-7.193 2.358-12.905-.59-18.682-5.048-9.897-13.282-13.24-30.035-12.194-8.543.532-21.212 3.41-23.565 5.35-.242.2.462 1.65 1.563 3.223 2.236 3.19 2.665 7.302.763 7.302-.683 0-1.948-1.143-2.813-2.54-2.63-4.244-10.046-8.604-16.82-9.89-8.61-1.63-20.905.38-26.696 4.37-4.692 3.232-8.026 3.88-9.307 1.81-1.238-2.004-2.78-1.45-3.487 1.25-.36 1.374-1.572 2.5-2.695 2.5-1.122 0-4.41 1.227-7.304 2.728l-5.263 2.728 3.75.912c2.063.5 8.443 1.51 14.18 2.24 11.665 1.49 17.94 4.572 20.882 10.26 2.56 4.95 2.543 19.21-.028 25.29l-2.022 4.783 6.536-.346c4.23-.225 6.712.18 7.034 1.146.924 2.77-12.44 5.758-18.45 4.123z" fill="#4b4b4b"/></svg>