<svg xmlns="http://www.w3.org/2000/svg" viewBox="0 0 120.5363 86.213951" height="86.214" width="120.536"><path d="M39.87 85.238c-1.344-.505-2.917-1.958-3.496-3.23-1.41-3.092-2.855-2.913-4.046.503-.54 1.548-1.572 2.813-2.295 2.813-1.71 0-1.67-.522.598-7.87 1.496-4.84 2.31-6.192 3.728-6.192 1.54 0 1.682.35.936 2.31-1.173 3.085.35 3.866 2.156 1.108 3.028-4.622 12.518-5.63 14.695-1.564 1.754 3.28 1.107 7.464-1.532 9.91-1.364 1.265-2.946 2.305-3.516 2.312-.57.007-1.878.195-2.91.417-1.03.222-2.974-.01-4.317-.515zm8.77-4.788c2.03-2.346 2.075-3.934.168-5.84-2.118-2.12-4.83-1.818-7.476.827-2.85 2.85-2.912 4.665-.22 6.55 2.432 1.703 5.22 1.135 7.53-1.537zm9.844 3.096c-1.543-1.503-2.578-3.518-2.578-5.018 0-2.868 3.074-6.14 6.544-6.964 1.3-.31 2.87-.96 3.492-1.45 1.857-1.46 7.777 3.646 7.777 6.706 0 3.197-2.837 6.278-6.523 7.088-1.57.345-2.853 1.015-2.853 1.49 0 1.676-3.314.63-5.86-1.852zm4.922-7.34c0-1.908-.248-2.066-1.875-1.195-1.828.98-2.558 4.63-1.196 5.99.994.995 3.072-2.248 3.072-4.795zm5.996 3.347c1.018-1.454 1.155-2.504.49-3.75-1.426-2.662-2.418-2.082-3.46 2.02-.756 2.98-.694 3.75.302 3.75.69 0 1.89-.91 2.668-2.02zm11.348 6.03c-1.03-.254-2.402-.89-3.047-1.413-1.618-1.314-1.472-7.377.237-9.816 1.715-2.45 7.254-4.413 10.294-3.65 7.417 1.862 6.696 11.723-1.073 14.677-2.432.926-3.35.955-6.41.202zm8.203-5.09c.902-1.067 1.64-2.496 1.64-3.175 0-1.778-2.66-4.182-4.627-4.182-2.677 0-6.622 3.643-6.622 6.115 0 4.41 6.247 5.216 9.61 1.242zM.07 83.72c.34-.88 1.333-4.06 2.21-7.067 1.697-5.814 2.984-6.782 8.206-6.17 4.07.48 3.915 2.486-.217 2.827-2.506.207-3.66.782-3.878 1.935-.225 1.19.302 1.64 1.914 1.64 4.392 0 5.746 3.418 2.6 6.563-2.557 2.557-11.8 2.79-10.836.273zm8.492-3.084c0-2.033-3.657-1.753-4.055.31-.256 1.332.162 1.647 1.863 1.407 1.206-.17 2.192-.944 2.192-1.717zm6.094 3.71c0-2.18 3.974-13.085 4.77-13.085 1.77 0 2.204.523 1.964 2.36-.178 1.355.557 2.192 2.603 2.964 3.345 1.263 3.888 4.697 1.136 7.188-1.914 1.73-10.474 2.2-10.474.575zm7.97-3.632c0-2.18-2.137-2.218-3.292-.06-.967 1.806-.856 1.975 1.11 1.697 1.2-.17 2.18-.906 2.18-1.636zm72.655 3.35c0-1.683 3.607-12.096 4.498-12.988 1.09-1.09 7.794.3 8.342 1.73.27.7.225 2.32-.097 3.604-.452 1.802-1.522 2.567-4.71 3.37-3.135.79-4.26 1.58-4.69 3.29-.592 2.36-3.342 3.176-3.342.994zm9.376-8.584c0-.782-.833-1.407-1.875-1.407-1.04 0-1.874.625-1.874 1.407 0 .78.833 1.406 1.875 1.406 1.043 0 1.876-.625 1.876-1.406zm5.635 9.21c.007-.426.645-2.862 1.42-5.416 1.26-4.156 1.258-4.728-.03-5.45-2.487-1.39-.53-2.563 4.28-2.563 4.906 0 6.106 1.362 2.43 2.76-1.617.615-2.57 2.163-3.59 5.836-.885 3.177-1.96 5.11-2.955 5.302-.86.166-1.56-.045-1.554-.47zM30.063 63.706c4.513-4.995 9.668-13.12 11.445-18.038.783-2.168 1.436-6.926 1.453-10.575.058-13.022-7.962-23.73-24.085-32.155L13.25 0l4.687.556c7.65.908 26.565 5.9 33.854 8.933 13.652 5.682 20.99 13.224 20.99 21.57 0 11.17-18.246 27.79-37.95 34.57-7.97 2.742-8.713 2.443-4.768-1.923zm36.893-8.793c12.52-11.81 16.067-26.143 8.58-34.67l-2.778-3.164 3.767.846c2.07.465 6.507 1.943 9.856 3.284 18.397 7.365 12.798 20.555-14.695 34.62-5.502 2.815-10.256 5.118-10.565 5.118-.31 0 2.317-2.715 5.835-6.034zm29.395-8.597c6.18-6.61 7.69-11.53 5.075-16.54-1.643-3.15-.443-3.383 3.874-.75 3.566 2.174 5.298 5.072 4.512 7.548-.75 2.358-7.56 8.307-12.765 11.148l-4.11 2.244 3.413-3.65z" fill="#4b4b4b"/></svg>