<svg xmlns="http://www.w3.org/2000/svg" width="2842.529" height="694.535" viewBox="0 0 2842.5288 694.53503"><g fill="#4b4b4b"><path d="M395.882 662.83c12.284.002 14.515 1.797 27.095 21.795l5.75 9.14h5.48c3.014 0 5.48-.188 5.48-.42 0-.54-15.464-23.962-17.068-25.85-.668-.786-2.354-2.308-3.747-3.382l-2.533-1.952 3.94-1.146c9.454-2.753 14.74-9.37 14.7-18.403-.042-9.286-5.475-16.294-14.06-18.135-2.62-.562-13.18-1.02-23.466-1.02H378.75v70.208l4.453.286 4.453.285.257-15.703.256-15.703h7.712zm-7.757-19.77v-11.334l14.766.355c16.5.398 18.83 1.06 21.2 6.028 1.918 4.025 1.933 6.23.067 9.84-2.61 5.048-7.38 6.4-22.673 6.423l-13.36.02v-11.33zm241.122 48.872c2.22-1.142 5.582-3.57 7.474-5.393 3.7-3.57 8.983-14.062 7.67-15.238-.437-.393-2.553-1.14-4.7-1.66l-3.902-.948-1.613 4.224c-7.144 18.706-34.257 17.112-39.91-2.346-1.834-6.314-1.638-19.307.38-25.15 6.003-17.374 30.085-19.6 37.732-3.484 1.47 3.1 1.67 3.194 5.434 2.582 2.15-.35 4.265-.968 4.7-1.376 1.275-1.195-2.596-8.776-6.448-12.628-5.678-5.68-10.72-7.52-20.593-7.526-7.347-.004-9.204.348-14.353 2.725-7.148 3.3-12.466 8.98-15.168 16.203-3.983 10.644-3.345 26.558 1.442 36.006 6.217 12.268 14.865 17.058 29.668 16.43 6.076-.26 9.18-.876 12.187-2.422zm209.858-.654c13.244-6.224 19.57-18.344 18.46-35.374-.706-10.865-3.504-17.607-9.983-24.06-4.35-4.332-6.397-5.586-12.077-7.403-18.023-5.763-36.035 2.08-42.51 18.512-3.062 7.77-3.09 23.69-.054 31.264 5.355 13.362 17.292 20.76 32.57 20.19 6.065-.228 8.73-.84 13.595-3.128zm-22.98-6.187c-5.796-1.53-13.1-9.387-15.09-16.232-1.752-6.025-1.496-15.78.596-22.763 1.384-4.618 5.978-9.645 11.47-12.55 5.483-2.9 16.383-2.94 21.744-.077 8.046 4.295 12.488 12.008 13.31 23.11.74 10.014-1.437 16.53-7.574 22.667-6.603 6.604-14.465 8.483-24.454 5.846zm614.5-26.01v-35.626h-9.375v70.209l4.453.35c2.45.195 4.56.43 4.688.522.13.093.235-15.863.235-35.456zm191.73-27.19h11.707v-8.436h-56.25v8.38l11.485.263 11.484.263.248 30.652.248 30.652 4.44.286 4.44.285.247-31.172.247-31.172zm366.125 59.388c9.592-4.508 14.01-9.962 17.335-21.395 2.088-7.182 1.476-19.396-1.343-26.816-6.31-16.61-25.094-24.646-43.274-18.513-8.057 2.718-15.57 10.018-18.657 18.125-3.21 8.44-3.663 20.71-1.046 28.426 2.577 7.596 5.565 12.29 10.07 15.823 7.68 6.02 13.384 7.847 23.322 7.475 6.064-.227 8.73-.84 13.594-3.127zm-23.95-6.56c-6.185-2.586-12.23-9.357-14.103-15.8-2.21-7.598-1.375-18.664 1.912-25.383 3.975-8.125 13.065-13.107 22.53-12.347 9.674.777 16.23 5.394 20.296 14.297 2.51 5.496 2.99 17.903.95 24.662-1.487 4.934-6.71 10.9-11.833 13.515-5.16 2.635-14.75 3.148-19.752 1.057zm817.5 7.026c3.095-1.264 7.42-3.44 9.61-4.837l3.985-2.54v-26.695l-15 .28-15.003.28v8.283l10.08.266 10.077.267.277 6.357.277 6.357-6.187 2.897c-15.21 7.117-32.378 2.425-38.248-10.453-2.902-6.363-2.848-20.318.1-26.72 4.27-9.266 10.49-13.453 21.185-14.262 8.847-.67 14.958 1.777 19.202 7.687 1.608 2.238 2.923 4.787 2.923 5.666 0 1.208.512 1.45 2.11.996 1.16-.33 3.28-.857 4.71-1.17 2.795-.61 2.808-1.08.195-7.473-1.468-3.594-6.58-8.98-10.327-10.877-4.934-2.5-12.573-3.78-20-3.35-20.353 1.177-33.263 16.88-31.772 38.65 1.147 16.75 9.753 27.8 25.025 32.13 6.712 1.903 19.97 1.042 26.78-1.74zm-2765.156.85c0-.644 1.58-5.498 3.516-10.785l3.516-9.614 14.994.238 14.993.238 3.906 10.313 3.905 10.312 5.146.28 5.147.277-14.102-35.2-14.102-35.2h-9.806l-3.036 7.734c-1.668 4.254-4.03 10.055-5.25 12.89-1.217 2.837-4.952 12.118-8.3 20.626-3.347 8.507-7.145 18-8.44 21.093-3.286 7.856-3.247 7.97 2.76 7.97 3.5 0 5.155-.377 5.154-1.173zm13.588-37.5c1.756-4.77 4.424-11.773 5.93-15.564l2.736-6.893 2.875 7.83c1.58 4.307 4.163 11.31 5.738 15.565l2.865 7.734H27.267zm195.476 3.516v-35.156h-9.375v70.312h9.375zm789.595 8.29l.248-26.87 7.514 11.166c4.132 6.14 12.28 18.23 18.11 26.867L1052 693.766h10.188v-70.312H1052.84l-.247 26.807-.25 26.81-5.986-8.762c-3.293-4.818-11.438-16.882-18.1-26.808l-12.113-18.046h-10.205v70.312H1015.285zm239.58 24.133c9.926-4.437 15.912-14.702 16.833-28.868.882-13.548-2.486-24.387-9.756-31.4-6.4-6.175-8.788-6.74-30.08-7.13l-18.985-.348v70.65l18.516-.343c17.03-.316 18.914-.52 23.474-2.56zm-32.393-32.19l.25-26.483h11.718c13.746 0 15.697.43 20.295 4.467 4.676 4.106 6.983 9.746 7.587 18.55.797 11.63-2.655 21.953-8.735 26.12-4.222 2.892-8.986 3.74-21.27 3.79l-10.094.042.25-26.486zm566.968-.233v-35.156h-9.375v70.312h9.375zm375.22 8.203l.248-26.953 3.8 5.625c2.09 3.094 10.227 15.223 18.08 26.953l14.277 21.328h10.25v-70.312h-9.348l-.248 26.872-.25 26.873-17.917-26.64-17.917-26.638-5.285-.28-5.285-.282v70.406h9.346zm207.905-8.203v-35.156h-9.375v70.312h9.375zm162.407 8.22l.25-26.934 11.27 16.857c6.2 9.27 14.36 21.392 18.138 26.935l6.866 10.078h10.131v-70.312h-9.346l-.25 26.953-.25 26.953-13.192-19.688c-7.257-10.828-15.4-22.957-18.095-26.953l-4.902-7.266h-10.215v70.312h9.346zM3.506 576.814c1.522-1.418 4.836-4.418 7.365-6.666 2.53-2.25 8.41-7.733 13.07-12.188 4.658-4.455 13.26-12.53 19.115-17.944 5.856-5.414 12.634-11.742 15.064-14.062 2.428-2.32 9.21-8.65 15.07-14.063 5.858-5.413 14.674-13.69 19.59-18.394 4.916-4.703 11.654-11.03 14.972-14.062 3.318-3.032 9.646-8.925 14.062-13.096 4.416-4.17 10.714-10.077 13.995-13.125 5.738-5.33 8.926-8.313 21.272-19.9 3.12-2.93 11.333-10.602 18.248-17.047 6.915-6.445 13.92-12.984 15.57-14.53 1.648-1.548 8.403-7.876 15.01-14.064 14.167-13.266 23.457-22.01 28.886-27.187 2.163-2.063 8.302-7.758 13.642-12.656 5.34-4.9 11.465-10.595 13.613-12.658 2.148-2.062 8.678-8.18 14.513-13.593 5.834-5.415 12.363-11.533 14.51-13.595 2.145-2.063 9.127-8.602 15.515-14.53 6.388-5.93 15.218-14.18 19.622-18.335 4.405-4.154 10.96-10.27 14.565-13.594 3.605-3.322 9.933-9.25 14.062-13.175 4.13-3.923 10.215-9.618 13.524-12.655 5.63-5.166 18.2-16.945 24.905-23.335 1.623-1.547 7.967-7.453 14.097-13.125s12.905-12 15.055-14.063c3.823-3.666 25.387-23.946 30.406-28.593 1.392-1.29 7.55-7.052 13.682-12.805 6.133-5.753 12.417-11.614 13.964-13.024 1.546-1.41 6.432-5.983 10.858-10.164 4.426-4.18 12.398-11.61 17.715-16.507 5.317-4.9 11.42-10.595 13.565-12.658 2.143-2.062 9.57-9.005 16.504-15.43 6.934-6.422 16.404-15.322 21.044-19.777 4.64-4.455 10.95-10.38 14.023-13.165 3.07-2.786 7.343-6.753 9.492-8.815 4.304-4.132 11.28-10.65 25.058-23.414 4.995-4.626 9.082-8.943 9.082-9.592 0-.945-61.377-1.184-308.906-1.204L0 0v289.696C0 449.028.166 579.39.37 579.39c.203 0 1.614-1.16 3.136-2.577zm830.72-100.993c11.707-1.76 19.042-3.48 29.895-7.01 10.024-3.262 28.896-11.037 30.538-12.582.618-.58 3.654-2.262 6.748-3.736 6.923-3.298 21.003-11.875 34.688-21.128 9.264-6.265 14.677-10.567 24.778-19.693 1.77-1.597 3.562-2.904 3.984-2.904.423 0 .77-.48.77-1.068 0-.587 3.108-4.32 6.907-8.298 8.642-9.045 17.822-22.838 24.42-36.688 4.586-9.63 6.12-13.8 11.312-30.728 8.36-27.257 6.858-89.197-2.78-114.806-2.524-6.703-9.862-20.423-12.145-22.706-.806-.806-1.472-1.75-1.48-2.1-.01-.35-1.803-2.56-3.985-4.91-2.183-2.348-5.656-6.245-7.72-8.658-2.06-2.413-4.112-4.393-4.555-4.4-.443-.007-3.185-2.194-6.094-4.86-16.393-15.028-45.38-29.628-71.38-35.954-19.55-4.756-16.802-4.668-145.314-4.668H632.344l-3.965 2.12c-4.916 2.625-6.17 5.01-9.07 17.24-2.94 12.41-11.454 47.364-13.322 54.703-.788 3.094-2.548 10.265-3.913 15.937-1.365 5.672-2.815 10.454-3.222 10.627-.407.172-.518.673-.246 1.112.427.692-2.15 11.733-9.958 42.635-1.043 4.125-2.082 8.344-2.31 9.375-.228 1.032-1.9 7.782-3.713 15-1.815 7.22-3.483 13.905-3.708 14.858-2.07 8.77-7.23 29.884-7.937 32.486-.49 1.805-1.987 7.922-3.325 13.594s-3.008 12.422-3.712 15c-.704 2.578-2.372 9.54-3.707 15.47-1.335 5.928-2.825 12.045-3.31 13.592-.487 1.547-2.2 8.508-3.806 15.47-1.606 6.96-3.518 14.765-4.248 17.343-2.76 9.755-7.94 32.144-7.94 34.333 0 3.04 2.337 6.225 4.932 6.725 1.155.223 64.436.463 140.623.533 117.827.11 139.9-.08 147.737-1.256zM715.75 391.505c-1.42-2.166-1.426-2.73-.08-6.847.81-2.467 3.835-13.556 6.725-24.642 6.99-26.813 8.116-31.093 12.095-45.937 1.866-6.962 5.326-20.04 7.69-29.064 2.362-9.023 5.685-21.68 7.383-28.125 1.698-6.444 4.41-16.778 6.024-22.964 3.25-12.44 4.58-15.107 8.24-16.498 1.534-.584 14.103-.836 32.997-.662l30.52.28 5.602 2.752c5.067 2.488 12.95 9.354 17.847 15.543 12.497 15.798 16.906 40.01 11.266 61.864-1.265 4.898-3.19 11.226-4.28 14.062-1.09 2.836-2.326 6.21-2.744 7.5-1.477 4.548-10.12 22.113-14.07 28.594-13.396 21.98-29.318 37.51-44.892 43.79-5.144 2.076-6.325 2.144-42.035 2.426l-36.744.29zm694.14 80.42c4.68-3.278 5.995-11.58 3.437-21.69-.75-2.956-1.992-8.96-2.764-13.344-1.822-10.35-7.83-42.378-8.97-47.81-.76-3.618-4.98-25.687-6.277-32.814-.235-1.29-1.895-9.937-3.688-19.22-7.9-40.88-12.106-62.922-14.31-75-.718-3.93-4.934-26.12-11.934-62.81-.787-4.126-2.223-11.298-3.19-15.94-.968-4.64-3.05-15.608-4.626-24.374-3.618-20.116-4.26-22.34-7.523-26.055-4.753-5.413-3.672-5.35-92.432-5.35-88.452 0-85.04-.204-89.944 5.344-1.276 1.444-4.23 6.21-6.566 10.594-4.83 9.067-7.34 13.586-11.03 19.86-1.42 2.415-3.976 7.055-5.682 10.312-1.706 3.257-4.236 7.706-5.622 9.887-1.386 2.18-2.52 4.246-2.52 4.588 0 .588-10.316 19-16.096 28.727-1.46 2.457-2.654 4.66-2.654 4.895 0 .235-1.898 3.64-4.22 7.563-2.32 3.925-4.217 7.29-4.217 7.477 0 .188-1.413 2.79-3.14 5.782s-4.838 8.605-6.913 12.472c-2.076 3.867-6.627 12.094-10.114 18.28-11.026 19.566-17.613 31.39-25.33 45.47-1.836 3.352-4.052 7.36-4.923 8.906-.872 1.547-3.675 6.61-6.23 11.25-2.553 4.64-6.672 11.93-9.153 16.2-2.48 4.27-4.51 8.034-4.51 8.365 0 .33-.57 1.266-1.266 2.08-.696.814-3.17 5.066-5.497 9.45-2.328 4.382-5.06 9.444-6.072 11.25-7.554 13.47-9.328 16.618-10.297 18.275-.606 1.034-1.967 3.568-3.024 5.63-1.057 2.063-2.33 4.383-2.83 5.157-2.162 3.342-17.565 31.055-21.83 39.27-3.234 6.236-3.476 11.89-.66 15.47l1.963 2.496 47.628-.26c44.695-.243 47.744-.365 49.53-1.98 1.72-1.56 7.092-10.016 14.39-22.654 1.487-2.578 5.797-9.75 9.576-15.935 6.23-10.196 7.213-11.35 10.522-12.35 5.09-1.536 121.135-1.71 124.48-.187 3.15 1.436 3.762 3.304 7.63 23.316 1.845 9.54 3.994 20.402 4.776 24.14l1.422 6.798h74.26c67.135 0 74.467-.147 76.44-1.53zm-237.656-147.9c.503-2.003 2.72-6.082 15.593-28.696 5.658-9.942 22.63-40.48 24.747-44.533 1.078-2.062 2.674-4.76 3.548-5.994l1.587-2.244.487 2.243c.982 4.517 6.165 32.61 9.926 53.807 1.098 6.187 2.66 14.28 3.468 17.983.81 3.703 1.22 7.394.908 8.203-.496 1.293-4.192 1.47-30.695 1.47h-30.13zm431.082 147.788c1.34-1.548 4.017-10.65 10.135-34.453 4.444-17.287 9.752-37.507 28.06-106.875 1.496-5.672 3.59-13.55 4.654-17.51 1.063-3.957 4.25-16.19 7.083-27.186 2.833-10.997 5.725-22.102 6.426-24.68.7-2.578 3.707-13.97 6.678-25.313 2.973-11.343 7.22-27.375 9.443-35.625 7.99-29.672 10.068-37.58 11.217-42.656.642-2.836 1.905-7.64 2.807-10.674 1.082-3.64 1.5-7.435 1.232-11.155-.355-4.9-.8-5.986-3.4-8.31l-2.992-2.673h-139.346l-3.377 3.046c-2.728 2.46-3.846 4.623-5.807 11.235-1.336 4.503-2.82 9.988-3.295 12.188-.476 2.2-1.532 6.32-2.345 9.156-.814 2.835-3.97 14.858-7.017 26.717-3.044 11.86-7.668 29.578-10.274 39.375-2.605 9.797-6.013 22.664-7.573 28.594-1.56 5.93-3.454 13.102-4.208 15.938-.755 2.836-2.68 10.417-4.28 16.847-1.598 6.432-3.058 11.94-3.243 12.24-.186.3-2.934 10.65-6.107 22.996-6.152 23.937-8.21 31.914-8.824 34.168-.21.773-1.214 4.78-2.232 8.906-1.637 6.637-12.033 46.132-18.63 70.78-1.312 4.9-2.742 10.69-3.178 12.87-.436 2.18-1.473 6.302-2.303 9.157-1.812 6.233-1.17 10.067 2.113 12.65 2.356 1.853 3.67 1.887 74.782 1.887 67.772 0 72.475-.105 73.804-1.64zm222.874-.483c2.324-1.178 4.188-6.312 10.8-29.75 3.28-11.63 13.004-44.28 18.35-61.623 2.363-7.66 3.193-9.355 4.127-8.42.643.643 1.342 1.593 1.554 2.112.423 1.034 16.766 24.227 25.7 36.47 3.093 4.24 6.046 8.363 6.56 9.162 2.988 4.63 8.643 12.843 10.514 15.265l2.895 3.75c.397.516 4.827 6.924 9.844 14.24 5.017 7.318 10.226 14.173 11.576 15.235 2.436 1.916 3.1 1.932 82.345 1.932 53.368 0 80.828-.327 82.713-.985 5.145-1.794 5.67-6.263 1.657-14.07-1.482-2.885-8.06-12.994-10.027-15.415-.42-.516-4.128-5.79-8.242-11.72-4.114-5.93-8.22-11.775-9.127-12.99-2.502-3.358-7.303-10.184-12.292-17.478-6.997-10.23-12.21-17.724-13.04-18.75-.417-.515-4.08-5.79-8.137-11.718-4.057-5.93-10.16-14.727-13.56-19.547-3.4-4.82-6.603-9.428-7.12-10.238-.514-.81-1.446-2.14-2.07-2.955-5.166-6.755-6.943-9.29-11.008-15.71-2.553-4.033-5.113-7.755-5.69-8.27-1.822-1.63-8.8-13.062-9.9-16.22-1.154-3.31.01-5.986 4.32-9.96 6.657-6.135 10.012-9.11 16.358-14.5 3.88-3.297 7.265-6.26 7.523-6.584.257-.324 5.742-5.216 12.187-10.872 6.445-5.655 12.188-10.708 12.762-11.23.573-.52 4.574-4.11 8.89-7.978 4.318-3.867 10.612-9.562 13.99-12.656 3.375-3.094 8.644-7.735 11.706-10.313 3.062-2.578 8.533-7.393 12.157-10.7 3.624-3.308 9.086-8.095 12.137-10.64 3.052-2.542 6.052-5.11 6.668-5.704 3.974-3.836 23.907-21.85 31.378-28.355 1.29-1.123 5.64-4.903 9.666-8.4 7.844-6.812 10.02-9.936 10.02-14.382 0-5.974 3.315-5.725-76-5.725h-71.832l-5.537 4.765c-3.045 2.62-6.658 5.784-8.03 7.03-1.372 1.248-2.71 2.27-2.973 2.27-.263 0-2.094 1.592-4.068 3.54-1.975 1.95-4.473 4.163-5.552 4.922-1.806 1.27-9.575 7.62-12.01 9.818-.573.515-3.57 3.042-6.66 5.614-3.09 2.572-6.09 5.103-6.668 5.624-.577.522-5.825 4.956-11.66 9.855-5.837 4.897-12.573 10.592-14.968 12.655-4.562 3.927-5.683 4.86-14.055 11.7-2.827 2.312-6.713 5.66-8.635 7.44-1.922 1.78-4.77 4.044-6.328 5.03-3.646 2.31-3.645 2.292.353-13.997 1.753-7.142 3.74-15.622 4.412-18.845.674-3.223 1.56-5.86 1.97-5.86.408 0 .743-1.307.743-2.905 0-1.6.996-6.767 2.212-11.485 7.294-28.282 7.538-31.53 2.69-35.8l-2.558-2.25-71.306-.03c-55.614-.023-71.654.23-72.887 1.142-1.083.803-4.216 11.653-9.95 34.454-4.604 18.303-11.2 44.25-14.656 57.655-3.456 13.406-6.816 26.695-7.464 29.53-1.097 4.796-3.906 15.665-10.88 42.093-3.538 13.408-18.585 72.91-19.204 75.938-.252 1.236-1.685 6.932-3.184 12.656-5.702 21.785-11.527 44.623-14.49 56.814-1.692 6.96-3.976 15.655-5.075 19.32-2.75 9.174-2.61 12.087.742 15.44l2.74 2.74 70.15-.014c53.794-.01 70.684-.284 72.435-1.172zm469.594-3.83c2.06-1.866 3.93-6.6 6.723-17.015.968-3.61 2.443-9.094 3.278-12.188.834-3.093 4.67-17.86 8.526-32.812 3.855-14.953 8.835-34.15 11.066-42.656 2.23-8.51 7.728-29.603 12.216-46.876 4.488-17.274 9.153-35.204 10.368-39.844 3.38-12.91 8.225-31.68 16.944-65.625 4.37-17.016 8.364-32.243 8.873-33.838.51-1.595 2.712-9.61 4.895-17.813 5.76-21.643 5.332-29.208-1.974-34.798l-3.417-2.614-67.276-.252c-74.278-.28-70.365-.575-75.135 5.68-2.244 2.94-3.75 7.356-6.78 19.885-.747 3.094-1.957 7.523-2.687 9.844-.73 2.32-2.15 7.592-3.156 11.717-2.21 9.058-13.38 52.742-16.665 65.157-1.295 4.898-3.55 13.546-5.01 19.218-1.46 5.672-3.98 15.375-5.603 21.563-1.622 6.187-5.69 22.008-9.038 35.156-3.348 13.15-6.546 25.352-7.105 27.117-.56 1.765-1.994 7.25-3.188 12.187-1.194 4.938-4.11 16.36-6.48 25.385-3.762 14.33-11.125 42.95-18.74 72.837-3.09 12.14-3.102 17.44-.04 20.502l2.318 2.317 72.584-.25c69.126-.24 72.675-.335 74.5-1.988zm178.47-.98c1.782-1.838 3.634-5.113 4.372-7.736 3.038-10.805 4.88-17.5 8.083-29.393 1.875-6.96 4.258-15.608 5.295-19.218 1.038-3.61 2.875-10.36 4.084-15 1.207-4.64 3.313-12.445 4.677-17.343 1.365-4.9 3.535-12.915 4.822-17.814 1.287-4.898 3.183-11.648 4.214-15 1.03-3.35 2.223-7.78 2.65-9.844.427-2.062 2.548-10.078 4.714-17.812 2.165-7.735 4.955-17.86 6.2-22.5 3.114-11.623 3.113-11.62 4.275-9.55.526.936 2.556 6.632 4.512 12.657 1.956 6.025 4.01 12.01 4.56 13.3.553 1.288 2.265 6.35 3.804 11.25 1.54 4.898 4.885 15.023 7.435 22.5 2.55 7.476 5.473 16.124 6.497 19.218 1.024 3.094 6.574 19.547 12.334 36.562 5.76 17.016 12.175 36.21 14.257 42.657 2.08 6.445 4.596 13.507 5.59 15.693.992 2.185 1.805 4.28 1.805 4.657 0 1.436 5.062 4.946 7.857 5.45 1.608.288 38.472.403 81.92.253l78.997-.272 2.227-2.793c1.224-1.536 2.865-5.333 3.646-8.438.78-3.104 5.285-21.043 10.008-39.863 4.724-18.82 9.814-38.858 11.31-44.53 1.498-5.672 4.66-18.117 7.03-27.656 4.4-17.713 23.63-93.8 26.066-103.125.74-2.837 2.056-8.322 2.923-12.19.867-3.866 2.144-8.93 2.837-11.25.693-2.32 2.39-9.07 3.77-15s3.32-13.522 4.312-16.874c.99-3.35 2.404-8.836 3.14-12.187.735-3.353 2.83-11.79 4.654-18.75 5.1-19.46 4.434-31.682-1.88-34.56-1.648-.75-15.55-1.066-46.792-1.066h-44.448l-3.677 3.515c-2.555 2.44-4.146 5.09-5.21 8.67-2.275 7.67-13.26 48.088-15.413 56.72-1.83 7.33-2.595 10.18-9.198 34.22-1.772 6.444-3.373 12.35-3.56 13.124-1.186 4.912-6.334 24.325-8.328 31.406-1.307 4.64-3.897 14.344-5.757 21.562-4.08 15.844-5.132 19.22-5.986 19.22-.97 0-3.183-6.45-32-93.282-14.543-43.828-27.104-81.164-27.913-82.97-2.405-5.37-5.898-9.49-9.227-10.88-2.588-1.08-16.466-1.306-80.52-1.306h-77.392l-3.645 2.3c-3.268 2.064-6.548 7.683-5.893 10.098.257.95-2.144 11.082-4.854 20.477-2.174 7.537-8.397 31.262-15.108 57.592-3.973 15.59-12.242 47.212-14.097 53.907-.784 2.835-4.13 15.702-7.433 28.592-3.304 12.89-6.687 25.97-7.518 29.063-2.812 10.465-7.19 27.11-11.713 44.53-11.085 42.693-16.765 64.274-20.236 76.876-3.328 12.09-2.834 17.934 1.88 22.267l3.315 3.047h94.625z"/><path d="M383.203 693.95l-4.453-.287v-70.209h18.704c10.287 0 20.846.46 23.465 1.02 8.585 1.842 14.018 8.85 14.06 18.137.04 9.034-5.246 15.65-14.7 18.404l-3.94 1.147 2.533 1.953c1.393 1.074 3.08 2.596 3.746 3.38 1.603 1.89 17.068 25.312 17.068 25.853 0 .23-2.467.42-5.48.42h-5.48l-5.75-9.14c-12.58-20-14.812-21.794-27.096-21.796h-7.713l-.257 15.702-.257 15.703-4.453-.285zm35.563-41.38c3.987-1.81 6.86-5.726 6.86-9.35 0-3.18-2.938-8.266-5.522-9.56-1.594-.796-7.6-1.347-17.213-1.58l-14.765-.354v22.663l13.36-.02c11.09-.017 14.024-.322 17.28-1.8zm186.39 40.883c-6.003-1.996-9.36-4.045-12.52-7.642-6.88-7.838-10.238-19.515-9.186-31.96 1.175-13.896 7.032-23.224 17.667-28.135 5.15-2.377 7.006-2.73 14.352-2.725 9.873.006 14.914 1.847 20.592 7.526 3.852 3.852 7.723 11.433 6.448 12.628-.435.408-2.55 1.027-4.7 1.376-3.763.612-3.962.517-5.433-2.582-7.647-16.115-31.73-13.89-37.732 3.485-2.018 5.842-2.214 18.835-.38 25.15 5.653 19.457 32.766 21.05 39.91 2.345l1.613-4.224 3.903.947c2.147.522 4.263 1.27 4.7 1.662 1.313 1.176-3.97 11.67-7.67 15.237-5.77 5.564-10.445 7.422-19.66 7.813-5.18.22-9.522-.11-11.904-.9zm209.063-.01c-10.468-3.47-17.52-9.842-21.28-19.226-3.034-7.576-3.007-23.496.054-31.265 6.476-16.43 24.488-24.275 42.51-18.51 5.68 1.816 7.727 3.07 12.078 7.403 6.48 6.452 9.277 13.194 9.984 24.06 1.466 22.53-11.18 37.718-32.055 38.5-4.523.17-9.042-.215-11.29-.96zm17.158-8.284c6.504-1.64 13.476-8.9 15.64-16.292 3.046-10.398.422-24.076-5.896-30.735-4.59-4.837-9.273-6.667-17.06-6.667-8.04 0-12.726 1.927-18.076 7.436-3.73 3.842-5.338 8.58-6.035 17.8-.756 10.01 1.36 16.31 7.566 22.515 6.647 6.647 13.896 8.452 23.862 5.942zm594.325 8.855l-4.453-.352V623.453h9.375v35.625c0 19.592-.105 35.548-.234 35.455-.128-.093-2.238-.327-4.687-.52zm180.013-.065l-4.44-.286-.248-30.652-.247-30.652-11.483-.263-11.484-.263v-8.38h56.25v8.437h-23.413l-.247 31.173-.247 31.172-4.44-.285zm357.878-.497c-11.57-3.808-18.025-10.336-22.1-22.347-2.617-7.717-2.165-19.985 1.048-28.426 3.085-8.108 10.6-15.407 18.656-18.125 14.04-4.737 29.01-1.062 37.876 9.297 9.17 10.71 10.698 30.773 3.423 44.886-4.702 9.12-15.437 15.21-27.61 15.667-4.492.17-9.06-.217-11.293-.952zm20.69-9.79c5.122-2.617 10.345-8.58 11.833-13.515 2.038-6.76 1.56-19.167-.95-24.663-4.068-8.903-10.623-13.52-20.298-14.297-9.465-.76-18.555 4.222-22.53 12.347-3.288 6.72-4.122 17.785-1.913 25.384 1.873 6.44 7.918 13.213 14.104 15.8 5.004 2.09 14.593 1.577 19.753-1.058zm770.97 9.82c-15.273-4.33-23.878-15.38-25.025-32.13-1.492-21.768 11.417-37.472 31.77-38.65 17.29-1 27.923 5.334 32.13 19.144.496 1.625.13 2.09-1.996 2.556-1.432.313-3.552.84-4.712 1.17-1.597.454-2.11.212-2.11-.997 0-.878-1.315-3.428-2.922-5.666-4.244-5.91-10.355-8.357-19.202-7.688-10.696.81-16.915 4.996-21.185 14.263-2.95 6.4-3.002 20.356-.102 26.72 5.87 12.878 23.04 17.57 38.25 10.452l6.187-2.895-.278-6.357-.28-6.357-10.077-.266-10.078-.266v-8.285l15-.278 15.003-.28v26.696l-3.985 2.54c-7.76 4.945-14.63 7.11-23.672 7.46-5.083.198-10.136-.154-12.714-.885zm-2748.67-.89c.013-.643 1.082-3.702 2.376-6.796 1.295-3.093 5.093-12.586 8.44-21.093 3.348-8.508 7.083-17.79 8.3-20.625 1.22-2.837 3.582-8.638 5.25-12.892l3.037-7.734h9.806l14.102 35.2 14.102 35.2-5.146-.278-5.145-.28-3.906-10.31-3.907-10.314-14.993-.238-14.994-.238-3.516 9.613c-1.935 5.286-3.517 10.14-3.516 10.784 0 .796-1.655 1.172-5.155 1.172-3.513 0-5.15-.374-5.135-1.172zm41.157-36.56c-1.574-4.255-4.156-11.26-5.737-15.566l-2.875-7.83-2.736 6.893c-1.506 3.79-4.174 10.795-5.93 15.564l-3.194 8.672h23.337l-2.864-7.734zm168.823 2.577v-35.156h9.375v70.312h-9.375V658.61zm789.375 0v-35.156h10.207l12.113 18.046c6.662 9.926 14.807 21.99 18.1 26.808l5.987 8.76.25-26.807.247-26.806h9.348v70.312H1052l-10.597-15.703c-5.828-8.637-13.977-20.727-18.11-26.867l-7.512-11.165-.247 26.87-.25 26.866h-9.344V658.61zm207.187.002v-35.325l18.984.348c21.292.39 23.68.956 30.08 7.13 7.27 7.014 10.638 17.853 9.756 31.4-.92 14.166-6.907 24.432-16.832 28.87-4.56 2.037-6.445 2.243-23.473 2.558l-18.515.343v-35.324zm33.506 25.867c11.016-2.133 17.035-13.122 15.94-29.102-.604-8.804-2.91-14.445-7.587-18.55-4.598-4.04-6.55-4.468-20.295-4.468h-11.72l-.248 26.484-.25 26.485 10.094-.042c5.55-.023 11.88-.387 14.067-.81zm533.683-25.87v-35.156h9.375v70.312h-9.375V658.61zm375-.047V623.36l5.285.28 5.285.282 17.918 26.64 17.92 26.637.247-26.874.25-26.872h9.344v70.312h-10.25l-14.277-21.328c-7.852-11.73-15.988-23.86-18.078-26.953l-3.8-5.625-.25 26.953-.248 26.953h-9.348v-35.203zm208.124.047v-35.156h9.376v70.312h-9.376V658.61zm162.188 0v-35.156h10.216l4.903 7.265c2.696 3.995 10.838 16.124 18.095 26.952l13.193 19.688.25-26.953.25-26.953H2581.874v70.312h-10.131l-6.866-10.078c-3.777-5.543-11.94-17.664-18.138-26.935l-11.27-16.857-.25 26.935-.25 26.936H2525.626V658.61zM0 289.696V0l308.906.024c247.53.02 308.906.26 308.906 1.204 0 .65-4.087 4.966-9.082 9.593-13.78 12.766-20.754 19.283-25.058 23.415-2.15 2.062-6.42 6.03-9.493 8.815-3.073 2.786-9.383 8.71-14.024 13.165-4.64 4.455-14.11 13.355-21.044 19.778-6.934 6.424-14.36 13.367-16.504 15.43-2.144 2.062-8.248 7.757-13.565 12.656-5.317 4.897-13.29 12.325-17.715 16.506-4.426 4.18-9.312 8.755-10.86 10.165-1.546 1.41-7.83 7.272-13.963 13.025-6.133 5.753-12.29 11.515-13.682 12.804-5.02 4.646-26.583 24.926-30.406 28.592-2.15 2.063-8.925 8.39-15.055 14.063-6.13 5.672-12.474 11.578-14.097 13.125-6.704 6.39-19.274 18.168-24.904 23.335-3.308 3.037-9.394 8.732-13.523 12.656-4.13 3.925-10.457 9.854-14.062 13.176-3.606 3.323-10.16 9.44-14.565 13.594-4.404 4.154-13.234 12.404-19.622 18.334s-13.37 12.468-15.516 14.53c-2.146 2.063-8.675 8.18-14.51 13.595-5.834 5.413-12.364 11.53-14.51 13.592-2.15 2.063-8.275 7.758-13.615 12.657-5.34 4.897-11.478 10.592-13.64 12.655-5.43 5.177-14.72 13.92-28.887 27.187-6.607 6.188-13.362 12.516-15.01 14.063-1.65 1.547-8.655 8.086-15.57 14.53-6.915 6.446-15.127 14.117-18.248 17.047-12.347 11.588-15.534 14.57-21.273 19.9-3.282 3.05-9.58 8.955-13.996 13.126-4.416 4.17-10.744 10.064-14.062 13.096-3.318 3.03-10.056 9.36-14.972 14.062-4.916 4.703-13.732 12.98-19.59 18.395-5.86 5.415-12.642 11.743-15.07 14.064-2.43 2.32-9.21 8.648-15.065 14.062-5.855 5.414-14.457 13.49-19.116 17.943-4.66 4.454-10.54 9.938-13.07 12.187-2.528 2.248-5.842 5.248-7.364 6.666C1.984 578.23.573 579.39.37 579.39.166 579.39 0 449.03 0 289.697zm545.868 186.847c-2.595-.5-4.93-3.686-4.93-6.725 0-2.19 5.177-24.578 7.938-34.333.73-2.578 2.642-10.383 4.248-17.344 1.607-6.96 3.32-13.92 3.805-15.468.485-1.547 1.975-7.664 3.31-13.593 1.334-5.93 3.002-12.892 3.706-15.47.704-2.578 2.374-9.328 3.712-15 1.338-5.672 2.834-11.79 3.325-13.594.707-2.602 5.866-23.717 7.936-32.486.224-.953 1.892-7.64 3.707-14.858 1.814-7.218 3.485-13.968 3.713-15 .228-1.03 1.267-5.25 2.31-9.375 7.806-30.902 10.384-41.943 9.957-42.635-.272-.44-.16-.94.246-1.113.407-.174 1.857-4.956 3.222-10.628s3.125-12.843 3.913-15.937c1.868-7.34 10.38-42.294 13.322-54.702 2.9-12.23 4.154-14.616 9.07-17.242l3.964-2.118h120.468c128.512 0 125.765-.088 145.313 4.668 26 6.326 54.989 20.926 71.38 35.954 2.91 2.666 5.652 4.853 6.095 4.86.443.007 2.494 1.987 4.556 4.4 2.063 2.413 5.536 6.31 7.72 8.66 2.18 2.35 3.974 4.557 3.983 4.907.01.35.674 1.296 1.48 2.102 2.283 2.283 9.62 16.003 12.144 22.706 7.687 20.424 10.71 67.332 6.25 96.994-1.053 7.012-2.615 15.027-3.47 17.812-5.19 16.928-6.725 21.1-11.312 30.728-6.597 13.85-15.777 27.643-24.42 36.688-3.798 3.977-6.907 7.71-6.907 8.298 0 .588-.346 1.068-.77 1.068-.42 0-2.214 1.307-3.983 2.905-10.1 9.127-15.514 13.43-24.778 19.694-13.685 9.253-27.765 17.83-34.688 21.128-3.093 1.474-6.13 3.156-6.748 3.736-3.095 2.91-32.45 13.823-45.202 16.802-18.02 4.21-16.793 4.18-162.965 4.046-76.186-.07-139.467-.31-140.622-.533zm250.206-85.392c15.574-6.28 31.496-21.81 44.892-43.79 3.95-6.48 12.593-24.046 14.07-28.594.418-1.29 1.653-4.664 2.743-7.5 10.827-28.175 8.2-56.728-6.987-75.925-4.896-6.188-12.78-13.054-17.847-15.542l-5.602-2.75-30.52-.282c-18.894-.174-31.463.078-32.998.662-3.66 1.39-4.99 4.057-8.24 16.498-1.614 6.186-4.325 16.52-6.023 22.965-1.698 6.446-5.02 19.103-7.384 28.126-2.364 9.024-5.824 22.102-7.69 29.063-3.98 14.843-5.106 19.123-12.095 45.936-2.89 11.086-5.916 22.175-6.724 24.642-1.346 4.116-1.34 4.68.08 6.847l1.546 2.36 36.743-.29c35.71-.28 36.89-.35 42.034-2.424zm461.694 75.507c-.782-3.74-2.93-14.602-4.775-24.14-3.87-20.013-4.48-21.88-7.632-23.317-3.343-1.524-119.39-1.35-124.478.187-3.31 1-4.293 2.154-10.52 12.35-3.78 6.186-8.09 13.357-9.578 15.935-7.297 12.638-12.67 21.095-14.39 22.653-1.785 1.616-4.835 1.738-49.53 1.98l-47.627.26-1.962-2.494c-2.817-3.58-2.575-9.234.66-15.47 4.264-8.215 19.667-35.928 21.828-39.27.5-.775 1.774-3.095 2.83-5.158 1.058-2.062 2.42-4.596 3.025-5.63.97-1.657 2.743-4.804 10.297-18.276 1.01-1.805 3.744-6.867 6.072-11.25 2.327-4.383 4.8-8.635 5.497-9.45.697-.813 1.266-1.75 1.266-2.08 0-.33 2.03-4.093 4.51-8.363s6.6-11.56 9.154-16.2c2.554-4.64 5.357-9.704 6.23-11.25.87-1.548 3.086-5.555 4.923-8.907 7.716-14.08 14.303-25.904 25.33-45.47 3.486-6.186 8.037-14.413 10.113-18.28 2.075-3.867 5.186-9.48 6.913-12.472 1.727-2.992 3.14-5.594 3.14-5.782 0-.188 1.898-3.552 4.218-7.477 2.322-3.924 4.22-7.328 4.22-7.563 0-.235 1.194-2.438 2.654-4.895 5.78-9.727 16.096-28.14 16.096-28.726 0-.34 1.134-2.406 2.52-4.587 1.386-2.18 3.916-6.63 5.622-9.887 1.706-3.257 4.263-7.897 5.683-10.312 3.688-6.274 6.198-10.793 11.03-19.86 2.335-4.383 5.29-9.15 6.564-10.593 4.903-5.547 1.49-5.344 89.943-5.344 88.76 0 87.68-.063 92.432 5.35 3.263 3.717 3.905 5.94 7.523 26.056 1.576 8.766 3.658 19.735 4.625 24.375.968 4.64 2.404 11.813 3.19 15.938 7 36.692 11.217 58.88 11.935 62.812 2.204 12.077 6.41 34.12 14.31 75 1.793 9.282 3.453 17.93 3.688 19.22 1.296 7.126 5.518 29.195 6.277 32.812 1.14 5.432 7.148 37.46 8.97 47.81.772 4.384 2.015 10.39 2.764 13.346 2.558 10.11 1.243 18.41-3.437 21.69-1.973 1.38-9.305 1.528-76.44 1.528h-74.26l-1.422-6.797zm-25.27-141.86c.31-.81-.098-4.5-.907-8.204-.808-3.703-2.37-11.796-3.467-17.983-3.762-21.198-8.944-49.29-9.926-53.807l-.488-2.244-1.588 2.243c-.874 1.234-2.47 3.932-3.548 5.994-2.117 4.052-19.09 34.59-24.747 44.532-12.874 22.613-15.09 26.692-15.593 28.694l-.562 2.242h30.13c26.504 0 30.2-.177 30.696-1.47zm222.232 146.77c-3.284-2.583-3.924-6.417-2.113-12.65.83-2.855 1.867-6.976 2.303-9.156.436-2.18 1.866-7.97 3.177-12.87 6.598-24.648 16.994-64.143 18.63-70.78 1.02-4.125 2.024-8.133 2.234-8.906.614-2.254 2.674-10.23 8.825-34.168 3.173-12.347 5.92-22.696 6.107-22.996.186-.3 1.646-5.808 3.244-12.24 1.6-6.43 3.524-14.01 4.28-16.846.754-2.836 2.647-10.008 4.207-15.938 1.56-5.93 4.968-18.797 7.573-28.594 2.606-9.797 7.23-27.515 10.275-39.375 3.047-11.86 6.204-23.882 7.018-26.718.813-2.837 1.87-6.958 2.345-9.157.476-2.2 1.96-7.685 3.295-12.188 1.96-6.612 3.08-8.774 5.807-11.235l3.377-3.046h139.346l2.992 2.673c2.6 2.324 3.045 3.41 3.4 8.31.268 3.72-.15 7.514-1.233 11.155-.902 3.035-2.165 7.838-2.807 10.674-1.15 5.075-3.228 12.984-11.217 42.656-2.222 8.25-6.47 24.282-9.442 35.625-2.97 11.344-5.976 22.735-6.677 25.313-.7 2.578-3.593 13.683-6.426 24.68-2.832 10.994-6.02 23.228-7.083 27.186-1.063 3.958-3.158 11.837-4.655 17.51-18.308 69.367-23.616 89.587-28.06 106.874-6.117 23.803-8.794 32.905-10.134 34.453-1.33 1.536-6.032 1.64-73.804 1.64-71.11 0-72.426-.033-74.782-1.886zm226.135-1.79c-3.353-3.354-3.493-6.267-.742-15.44 1.1-3.666 3.383-12.36 5.075-19.32 2.963-12.192 8.788-35.03 14.49-56.815 1.5-5.724 2.932-11.42 3.184-12.656.62-3.028 15.666-62.53 19.204-75.938 6.974-26.428 9.783-37.297 10.88-42.092.648-2.836 4.008-16.125 7.465-29.53 3.458-13.407 10.053-39.353 14.657-57.657 5.734-22.802 8.867-33.652 9.95-34.455 1.233-.914 17.273-1.165 72.887-1.142l71.305.03 2.556 2.25c4.85 4.27 4.605 7.518-2.69 35.8-1.215 4.718-2.21 9.886-2.21 11.485 0 1.598-.336 2.906-.745 2.906-.408 0-1.294 2.636-1.968 5.86-.673 3.222-2.66 11.702-4.412 18.844-3.998 16.29-4 16.306-.353 13.998 1.56-.987 4.406-3.25 6.328-5.032 1.922-1.78 5.808-5.127 8.636-7.438 8.373-6.84 9.494-7.774 14.056-11.7 2.395-2.064 9.13-7.76 14.967-12.657 5.836-4.9 11.084-9.334 11.66-9.856.578-.52 3.58-3.052 6.67-5.625s6.086-5.1 6.658-5.615c2.437-2.197 10.206-8.547 12.012-9.818 1.08-.76 3.577-2.973 5.552-4.922 1.974-1.948 3.805-3.54 4.068-3.54.263 0 1.6-1.022 2.973-2.27 1.372-1.246 4.985-4.41 8.03-7.03l5.537-4.764h71.833c79.314 0 76-.25 76 5.726 0 4.446-2.177 7.57-10.02 14.382-4.028 3.497-8.378 7.277-9.667 8.4-7.47 6.505-27.404 24.52-31.378 28.355-.616.595-3.616 3.162-6.668 5.705-3.05 2.544-8.513 7.33-12.137 10.638-3.624 3.308-9.095 8.123-12.157 10.7-3.062 2.58-8.33 7.22-11.707 10.314-3.376 3.094-9.67 8.79-13.987 12.656-4.317 3.867-8.318 7.458-8.89 7.98-.575.52-6.318 5.573-12.763 11.228-6.445 5.656-11.93 10.548-12.187 10.872-.258.325-3.644 3.287-7.523 6.583-6.346 5.39-9.7 8.365-16.358 14.5-4.314 3.974-5.474 6.65-4.32 9.96 1.1 3.158 8.078 14.59 9.9 16.22.577.515 3.137 4.236 5.69 8.27 4.065 6.42 5.842 8.955 11.01 15.71.622.814 1.554 2.144 2.07 2.955.515.81 3.72 5.418 7.12 10.238 3.4 4.82 9.5 13.616 13.56 19.546 4.057 5.928 7.72 11.202 8.136 11.717.83 1.026 6.043 8.52 13.04 18.75 4.99 7.294 9.79 14.12 12.29 17.477.907 1.216 5.014 7.062 9.128 12.992 4.114 5.93 7.822 11.203 8.242 11.72 1.968 2.42 8.545 12.53 10.027 15.413 4.014 7.807 3.488 12.276-1.657 14.07-1.885.657-29.345.984-82.713.984-79.244 0-79.91-.016-82.345-1.932-1.35-1.062-6.56-7.917-11.576-15.234-5.017-7.317-9.447-13.725-9.845-14.24-.4-.516-1.702-2.204-2.896-3.75-1.87-2.423-7.526-10.635-10.513-15.266-.514-.8-3.467-4.922-6.56-9.162-8.934-12.243-25.277-35.436-25.7-36.47-.21-.52-.91-1.47-1.553-2.114-.934-.934-1.764.76-4.126 8.42-5.346 17.344-15.07 49.995-18.35 61.623-6.612 23.438-8.476 28.572-10.8 29.75-1.75.888-18.64 1.162-72.434 1.172l-70.15.014-2.74-2.74zm465.516-2.358c-3.062-3.063-3.05-8.362.042-20.503 7.613-29.887 14.977-58.507 18.74-72.838 2.37-9.025 5.284-20.448 6.478-25.386 1.193-4.938 2.628-10.422 3.187-12.187.56-1.765 3.757-13.967 7.105-27.116 3.35-13.147 7.416-28.968 9.038-35.155 1.62-6.188 4.143-15.89 5.603-21.563 1.46-5.672 3.714-14.32 5.01-19.218 3.283-12.415 14.455-56.1 16.664-65.157 1.005-4.125 2.426-9.398 3.156-11.718.73-2.322 1.94-6.75 2.688-9.845 3.03-12.53 4.536-16.945 6.78-19.886 4.77-6.255.856-5.96 75.134-5.68l67.277.252 3.418 2.614c7.306 5.59 7.735 13.155 1.974 34.798-2.183 8.202-4.386 16.218-4.895 17.813-.51 1.595-4.502 16.822-8.873 33.838-8.72 33.944-13.565 52.714-16.944 65.625-1.215 4.64-5.88 22.57-10.368 39.844-4.488 17.273-9.986 38.367-12.217 46.875-2.23 8.506-7.21 27.702-11.064 42.655s-7.69 29.72-8.526 32.812c-.834 3.094-2.31 8.578-3.277 12.188-2.792 10.416-4.663 15.15-6.724 17.014-1.826 1.652-5.375 1.747-74.5 1.986l-72.585.25-2.318-2.317zm226.84-.763c-4.714-4.333-5.208-10.178-1.88-22.266 3.472-12.6 9.152-34.182 20.237-76.874 4.523-17.42 8.9-34.066 11.712-44.53.83-3.095 4.213-16.173 7.517-29.064 3.303-12.89 6.65-25.757 7.434-28.593 1.856-6.696 10.125-38.317 14.098-53.908 6.71-26.33 12.934-50.055 15.108-57.593 2.71-9.396 5.11-19.53 4.854-20.478-.655-2.415 2.625-8.034 5.893-10.098l3.645-2.3h77.392c64.054 0 77.932.225 80.52 1.306 3.33 1.39 6.822 5.51 9.227 10.88.81 1.806 13.37 39.142 27.914 82.97 28.817 86.833 31.03 93.28 32 93.28.853 0 1.904-3.374 5.985-19.218 1.86-7.218 4.45-16.922 5.757-21.562 1.994-7.08 7.142-26.494 8.328-31.406.187-.774 1.788-6.68 3.56-13.125 6.602-24.04 7.368-26.89 9.197-34.22 2.153-8.632 13.138-49.05 15.414-56.72 1.064-3.58 2.655-6.23 5.21-8.67l3.676-3.516h44.448c31.24 0 45.144.317 46.79 1.067 6.316 2.878 6.98 15.1 1.882 34.56-1.824 6.96-3.92 15.397-4.654 18.75-.736 3.35-2.15 8.835-3.14 12.186-.992 3.352-2.932 10.945-4.312 16.875-1.38 5.93-3.077 12.68-3.77 15-.693 2.32-1.97 7.384-2.837 11.25-.867 3.868-2.183 9.353-2.923 12.19-2.435 9.324-21.667 85.41-26.065 103.124-2.37 9.54-5.533 21.984-7.03 27.656-1.497 5.672-6.587 25.71-11.31 44.53-4.724 18.82-9.228 36.76-10.01 39.864-.78 3.105-2.42 6.902-3.646 8.438l-2.228 2.793-78.996.272c-43.45.15-80.313.035-81.92-.254-2.796-.503-7.858-4.013-7.858-5.45 0-.375-.813-2.47-1.806-4.656-.993-2.186-3.508-9.248-5.59-15.693-2.08-6.446-8.496-25.64-14.256-42.657-5.76-17.015-11.31-33.468-12.334-36.562-1.024-3.094-3.947-11.742-6.497-19.22-2.55-7.475-5.896-17.6-7.436-22.5-1.54-4.897-3.252-9.96-3.804-11.25-.552-1.288-2.605-7.273-4.56-13.298-1.957-6.025-3.988-11.72-4.513-12.656-1.162-2.07-1.16-2.073-4.276 9.55-1.244 4.64-4.034 14.765-6.2 22.5-2.165 7.734-4.286 15.75-4.713 17.812-.427 2.063-1.62 6.493-2.65 9.844-1.03 3.352-2.928 10.102-4.215 15-1.288 4.9-3.458 12.914-4.823 17.813-1.364 4.897-3.47 12.702-4.678 17.342-1.21 4.64-3.047 11.39-4.085 15-1.037 3.61-3.42 12.258-5.296 19.22-3.205 11.893-5.046 18.587-8.085 29.392-.737 2.623-2.59 5.898-4.372 7.735l-3.093 3.184h-94.625l-3.315-3.047z"/></g></svg>