<svg xmlns="http://www.w3.org/2000/svg" viewBox="0 0 499.1485 162.46397" height="162.464" width="499.149"><path d="M228.64 162.246c-.274-.27-8.044-.786-17.265-1.146-15.483-.603-42.763-2.79-52.234-4.19-5.37-.79-6.92-1.028-22.005-3.362C66.645 142.643 14.917 119.61 2.863 93.762c-3.86-8.277-3.815-17.556.125-25.58C15.346 43.015 60.648 22.033 128.64 9.99c7.426-1.315 15.74-2.693 18.478-3.062 2.737-.37 6.112-.833 7.5-1.03 34.378-4.91 95.318-7.238 133.523-5.1 13.668.765 42.512 3.21 49.5 4.195 1.926.273 5.3.73 7.5 1.014 4.82.627 13.71 1.995 26.5 4.082 5.226.852 16.926 3.327 26 5.5 34.337 8.22 60.665 18.63 78.77 31.146 24.953 17.25 29.667 38.7 12.663 57.613-18.682 20.78-62.83 38.37-120.834 48.147-9.446 1.592-18.732 3.1-20.636 3.35-13.505 1.778-32.81 3.716-45.963 4.615-17.56 1.2-72.237 2.54-73 1.79zm81.5-7.704c37.91-3.738 60.902-7.384 92-14.587 12.77-2.957 41.94-13.133 52.754-18.4 20.634-10.052 34.95-22.688 37.832-33.39 1.438-5.342.77-13.14-1.54-17.973-9.307-19.477-49.002-39.584-99.486-50.394-6.358-1.36-12.46-2.675-13.56-2.92-9.2-2.042-30.018-5.038-54.5-7.844-21.527-2.467-34.743-3.002-74-2.995-39.094.006-49.986.437-74.5 2.95-15.84 1.622-45.767 5.983-54 7.867-1.1.252-5.6 1.2-10 2.106-12.157 2.505-18.79 4.246-33 8.664C38.823 39.852 14.067 55.253 7.16 71.785c-2.378 5.69-1.96 14.414.97 20.297 3.41 6.844 11.072 14.51 20.83 20.842 21 13.63 47.34 22.915 91.183 32.14 6.96 1.466 19.54 3.563 29 4.836 21.642 2.91 25.148 3.29 42 4.558 7.7.578 16.026 1.22 18.5 1.423 9.365.774 89.977-.3 100.5-1.338zm-186-22.927c-9.594-4.37-14.837-15.176-12.483-25.73 1.75-7.843 5.22-12.155 12.484-15.512 4.39-2.027 13.755-2.506 17.936-.917 2.44.928 2.565 1.343 2.565 8.5 0 4.14-.337 7.51-.75 7.493-.412-.018-1.623-.693-2.69-1.5-1.068-.808-3.676-1.47-5.796-1.47-7.892 0-11.813 9.042-6.31 14.546 2.978 2.977 6.764 3.15 11.883.538l3.76-1.916-.298 8.122c-.284 7.7-.43 8.158-2.8 8.817-4.87 1.353-13.44.877-17.5-.972zm26.5-20.634v-21.5h15v29h16v14h-31v-21.5zm36 0v-21.5h16v43h-16v-21.5zm20.882 20.75c-.065-.41-.06-1.102.012-1.534l3.246-19.5c1.714-10.293 3.134-19.277 3.155-19.965.028-.895 2.374-1.25 8.275-1.25h8.236l2.2 7.242c1.21 3.983 2.438 8.718 2.73 10.524.747 4.594 1.903 4.853 2.596.582.322-1.988 1.57-6.93 2.773-10.98l2.187-7.367h16.285l1.693 11.25c.93 6.19 1.94 12.6 2.242 14.25 3.508 19.16 3.976 17.5-4.94 17.5h-7.427l-.63-5.25c-.348-2.886-.964-8.174-1.372-11.75l-.74-6.5-1.756 6c-.966 3.3-2.52 8.476-3.45 11.5l-1.696 5.5-4.565.298-4.566.298-3.435-11.527c-3.857-12.947-4.23-12.787-5.426 2.327l-.722 9.104h-7.393c-4.067 0-7.448-.336-7.513-.75zm62.122.04c.002-.433 3.33-10.014 7.394-21.29l7.39-20.5 8.882-.284 8.883-.284 3.28 9.784c1.802 5.382 5.045 14.735 7.205 20.785 2.16 6.05 3.935 11.357 3.945 11.79.01.436-3.695.66-8.232.5-7.69-.27-8.27-.44-8.57-2.54-.292-2.063-.844-2.25-6.68-2.25-5.834 0-6.387.187-6.68 2.25-.298 2.1-.878 2.27-8.57 2.54-4.537.16-8.248-.064-8.246-.5zm26.553-16.197c-.308-.5-1.166-3.537-1.905-6.75l-1.344-5.842-1.09 5.003c-.6 2.75-1.392 5.79-1.76 6.75-.564 1.468-.084 1.748 2.995 1.748 2.016 0 3.413-.408 3.104-.907zm27.444 2.408v-14.5h-9v-14h33v14h-9v29h-15v-14.5zm29-7v-21.5h29v10.91l-6.75.295c-5.984.263-6.75.523-6.75 2.296 0 1.758.767 2.037 6.3 2.3l6.302.3-.3 5.2-.3 5.2-6.25.3c-5.38.255-6.25.562-6.25 2.205 0 1.675.884 1.944 7.25 2.202l7.25.294.3 5.75.3 5.75h-30.1v-21.5zM110.88 76.52c-6.32-1.004-12.253-5.592-15.49-11.974-10.465-20.638 12.534-41.306 32.86-29.528 3.42 1.982 7.39 6.176 7.39 7.806 0 .227-2.743 1.44-6.096 2.693-5.785 2.164-6.242 2.195-8.905.622-3.902-2.305-6.675-2.074-9.545.796-1.85 1.85-2.454 3.52-2.454 6.777 0 7.177 5.024 11.85 10.5 9.768 3.613-1.372 3.07-3-1-3h-3.5v-10h11.942c6.798 0 12.204.427 12.552.99 1.213 1.963-1.53 12.558-4.245 16.398-4.73 6.69-14.415 10.18-24.01 8.653zm33.76-5.013c0-4.588.25-5.104 3.21-6.634 2.68-1.386 4.614-1.523 11.75-.828 4.697.457 11.803.847 15.79.865l7.25.034v4.233c0 5.94-1.955 6.808-12.936 5.75-12.297-1.184-20.86-1.05-22.26.35-2.156 2.157-2.803 1.287-2.803-3.77zm46.23-17.276l.27-21.25 7.5-.28 7.5-.284 6.5 10.783 6.5 10.78.285-10.792.284-10.793 7.215.293 7.216.293.27 21.25.27 21.25H218.673l-6.266-10.747-6.266-10.75-.283 10.75-.284 10.748H190.6l.27-21.25zm51.77-.276V32.426l14.25.278 14.25.277v11l-6.75.297c-5.87.257-6.75.544-6.75 2.202 0 1.64.874 1.947 6.25 2.203l6.25.298.303 5.25.302 5.25h-6.552c-6.322 0-6.552.09-6.552 2.5 0 2.43.2 2.5 7 2.5h7v11h-29V53.955zm36-.07v-21.6l13.25.375c18.78.53 23.036 3.222 23.036 14.57 0 5.296-.242 5.875-3.723 8.884l-3.724 3.218 5.08 7.53c2.794 4.14 5.08 7.774 5.08 8.074 0 .3-3.818.545-8.486.545h-8.486l-3.464-6.75c-1.906-3.712-3.524-6.3-3.596-5.75-.072.55-.062 3.588.022 6.75l.152 5.75h-15.14V53.884zm20.066-2.438c4.042-2.163 1.465-8.474-3.18-7.792-1.87.274-2.213.932-2.14 4.077.05 2.063.126 3.976.17 4.25.144.86 3.127.55 5.15-.534zM322.64 75.25c0-.17 3.33-9.752 7.4-21.29l7.402-20.98h17.7l7.194 20.5c3.957 11.276 7.22 20.857 7.25 21.29.03.436-3.658.66-8.195.5-7.69-.27-8.27-.44-8.57-2.54-.292-2.063-.844-2.25-6.68-2.25-5.834 0-6.387.187-6.68 2.25-.298 2.1-.878 2.27-8.57 2.54-4.537.16-8.25.152-8.25-.02zm26.974-15.02c-.22-2.1-3.87-13.756-3.913-12.5-.032.963-.028 1.863.01 2 .04.138-.344 1.376-.853 2.75-.508 1.376-1.223 3.738-1.59 5.25-.63 2.606-.48 2.75 2.855 2.75 1.935 0 3.507-.112 3.492-.25zm25.027-6.25v-21.5h15v30h16v13h-31v-21.5zm-230 3.263c0-7.096 2.125-8.35 13.364-7.884 5.025.206 12.625.43 16.888.5l7.75.12v4.13c0 2.436-.612 4.633-1.493 5.364-1.87 1.552-8.747 1.573-18.71.057-7.316-1.112-10.482-.827-16.05 1.45-1.51.618-1.75.11-1.75-3.737zm0-15.132c0-3.73.446-4.874 2.395-6.152 3.66-2.398 8.633-2.824 16.733-1.432 8.163 1.402 13.382 1.563 16.687.514 2.05-.65 2.186-.38 2.186 4.335 0 5.02-.006 5.03-3.998 6.106-3.004.81-6.363.73-13.507-.325-8.87-1.31-14.24-1.077-18.744.808-1.518.635-1.75.126-1.75-3.852z" fill="#4b4b4b"/></svg>