<svg xmlns="http://www.w3.org/2000/svg" viewBox="0 0 296.81885 74.000008" height="74" width="296.819"><path d="M80.682 72.248c-6.854-3.494-7.513-5.46-8.07-24.047l-.5-16.66-34.967-11.053L2.18 9.433.906 5.038C.207 2.62-.168.446.073.204c.34-.34 66.565 15.776 85.74 20.865l3.702.98-2.452 3.615c-2.38 3.508-2.452 4.147-2.45 21.725.005 16.29.204 18.437 1.987 21.36 1.09 1.788 2.438 3.25 2.996 3.25.558 0 1.015.45 1.015 1 0 1.615-6.21 1.145-9.928-.752zm127.35-1.167c3.82-3.985 4.154-6.462 3.58-26.51-.477-16.584-.614-17.536-2.862-19.925l-2.36-2.51 3.86-1.026C219.997 18.513 295.598 0 296.447 0c.574 0 .476 1.882-.244 4.706l-1.2 4.706-7.446 2.355c-4.096 1.295-20.046 6.312-35.446 11.15l-28 8.795-.5 16.894c-.417 14.1-.798 17.335-2.31 19.56-2.065 3.043-8.235 5.834-12.897 5.834h-3.166zm-75.92-4.987c-4.4-1.093-6.976-2.68-9.8-6.036-8.435-10.025.08-25.057 14.195-25.057 10.398 0 17.947 7.826 16.86 17.477-1.11 9.834-10.994 16.166-21.256 13.616zM140.61 55c2.69-2.69 2.517-5.573-.518-8.608-5.49-5.488-12.47 1.898-7.927 8.385 1.944 2.775 5.79 2.877 8.444.223zm-48-3.95V36h12l.01 4.75.012 4.75 3.107-4.75 3.107-4.75h12.76l-5.028 7.044-5.027 7.045 5.03 7.274c2.765 4 5.028 7.58 5.028 7.955 0 .374-2.898.68-6.442.68h-6.442l-2.808-5.02-2.807-5.02-.5 4.77-.5 4.77-5.75.3-5.75.3zm62.665 14.283c-.366-.366-.666-7.116-.666-15V36h9.936c12.133 0 14.692.864 16.686 5.636 1.81 4.333 1.146 7.832-2.023 10.654l-2.304 2.052 3.102 4.995 3.103 4.995.278-14.166.278-14.166h20.945v8h-4.5c-3.833 0-4.5.296-4.5 2 0 1.667.667 2 4 2 4 0 4 0 4 4 0 3.99-.008 4-3.945 4h-3.945l-.305 4.75-.304 4.75-12.038.28-12.04.278-2.148-4.28-2.15-4.278-.06 4.25-.063 4.25h-5.333c-2.933 0-5.633-.3-6-.667zM170.61 46.5c0-1.833-.533-2.5-2-2.5-1.466 0-2 .667-2 2.5s.534 2.5 2 2.5c1.467 0 2-.667 2-2.5zM40.124 49.7c-21.276-6.76-29.07-9.647-29.303-10.852-.252-1.31 4.807-.02 24.987 6.358C70.305 56.113 70.924 56.33 71.377 57.75c.22.688-.2 1.23-.933 1.205-.733-.025-14.378-4.19-30.32-9.256zm185.488 7.84c0-.837 1.605-1.91 3.75-2.51 2.063-.575 15.676-4.796 30.25-9.378 23.227-7.303 29.62-8.68 26.363-5.683-.747.688-58.416 19.03-59.833 19.03-.29 0-.53-.658-.53-1.46zm-186-13.572c-23.738-7.55-30.577-10.096-30.85-11.48-.272-1.373.072-1.617 1.5-1.067 1.018.393 14.9 4.807 30.85 9.81 15.95 5.003 29.428 9.473 29.95 9.933 3.662 3.225-4.717 1.308-31.45-7.195zm186 8.09c0-.517.345-1.153.766-1.413 1.837-1.135 61.693-19.52 62.13-19.083 1.482 1.482-5.23 4.116-31.437 12.332C241.095 48.902 227.483 53 226.82 53c-.666 0-1.21-.423-1.21-.94zM39.11 38.39c-26.913-8.56-33.9-11.32-32.414-12.807.47-.468 61.84 18.638 63.845 19.877 1.468.907 1.35 2.55-.18 2.507-.687-.02-14.75-4.33-31.25-9.577zm186.5 8.23c0-.862 3.297-2.418 8.75-4.13 50.297-15.8 55.35-17.238 55.045-15.658-.215 1.117-4.446 2.896-13.802 5.804-7.42 2.307-21.44 6.708-31.154 9.78C234.734 45.486 226.52 48 226.2 48c-.325 0-.59-.622-.59-1.382zM38.124 32.633C14.523 25.15 6.053 22.058 5.82 20.846c-.257-1.332 3.146-.547 17.987 4.152 10.067 3.187 24.94 7.89 33.054 10.45 13.44 4.243 16.172 5.586 14 6.88-.412.247-15.144-4.116-32.737-9.695zm187.646 8.815c.348-1.782 4.282-3.146 48.642-16.867 13.868-4.288 17.24-5.033 16.993-3.75-.222 1.153-8.785 4.264-30.8 11.19-16.772 5.276-31.548 9.95-32.836 10.383-1.915.646-2.28.47-2-.955zM36.117 26.625C12.844 19.21 4.04 15.99 3.814 14.815c-.25-1.29 3.9-.297 20.493 4.9C63.692 32.054 70.954 34.53 71.365 35.764c.233.7-.383 1.198-1.42 1.146-1.01-.05-16.23-4.678-33.827-10.285zm189.493 9.048c0-.868 11.33-4.857 32.75-11.53 18.013-5.613 33.3-10.19 33.97-10.174 2.96.074-.27 2.834-5.01 4.28-2.866.874-17.604 5.45-32.753 10.17-15.15 4.72-27.862 8.58-28.25 8.58-.39 0-.706-.597-.706-1.327z" fill="#4b4b4b"/></svg>