<svg xmlns="http://www.w3.org/2000/svg" viewBox="0 0 1999.819 942.66699" height="942.667" width="1999.819"><path d="M434.82 941.728c-88.068-6.937-172.88-38.716-244.05-91.445-34.788-25.773-72.416-63.33-97.637-97.45-77.436-104.757-108.08-233.135-86.29-361.5C28.2 265.524 100.92 152.92 207.32 80.91 282.975 29.705 366.775 2.85 459.194.193 564.84-2.846 668.155 29.94 753.36 93.54c32.474 24.238 63.82 54.82 89.113 86.94 52.06 66.11 86.407 148.245 96.745 231.354 5.475 44.018 4.604 92.48-2.442 135.967-8.82 54.433-28.665 110.203-56.41 158.534-13.14 22.89-34.942 53.61-51.81 73-16.79 19.3-43.74 45.25-62.55 60.223-75.364 59.998-164.265 94.943-260.137 102.25-15.48 1.18-55.63 1.136-71.05-.08zm79-77.416c173.35-19.177 313.937-149.626 345.384-320.478 4.1-22.276 5.724-39.156 6.328-65.754l.573-25.253-140.893.253-140.893.254-.273 18.246-.273 18.246 122.273.254 122.272.254-.31 6.5c-1.993 41.773-14.825 89.68-35.223 131.5-17.46 35.795-38.156 64.906-66.75 93.888-57.177 57.95-128.217 93.022-211.218 104.28-18.567 2.52-68.498 2.528-87.26.016-85.842-11.492-161.307-49.88-217.71-110.743-51.832-55.932-82.93-121.94-93.725-198.94-2.227-15.885-2.55-72.09-.5-87 9.168-66.673 30.91-121.295 68.062-171 54.493-72.906 130.89-121.383 218.22-138.472 21.838-4.274 36.33-5.71 63.162-6.258l25.75-.526V76.537l-25.25.588c-32.192.75-53.06 3.166-80.75 9.343-99.773 22.258-188.234 83.836-244.344 170.086-28.15 43.272-46.462 88.308-56.628 139.278-8.085 40.534-9.224 91.077-3.007 133.5 12.288 83.853 51.108 160.883 111.4 221.047 69.88 69.73 158.52 109.52 258.08 115.845 12.11.77 49.405-.354 63.5-1.913zm70-204.978v-18.5h-92.996l-.252-188.25-.253-188.25-18.75-.272-18.75-.272v414.044h131v-18.5zM335.776 375.19c24.834-6.973 41.49-28.794 41.49-54.356 0-46.93-53.255-73.13-90.93-44.738-22.878 17.242-28.97 50.814-13.53 74.565 6.957 10.703 15.736 17.98 27.17 22.52 12.064 4.79 23.592 5.437 35.8 2.01zM1723.82 717.238c-76.522-11.12-132.892-62.51-158.395-144.404-16.724-53.702-18.953-124.072-5.655-178.5 10.434-42.703 28.016-75.874 55.05-103.856 18.177-18.816 34.767-30.82 58.198-42.115 37.142-17.902 78.117-25.722 126.8-24.2 59.066 1.844 106.897 18.523 145.27 50.655 31.533 26.405 46.07 55.366 53.214 106.016.814 5.775 1.49 11.062 1.5 11.75.013.988-15.23 1.25-72.937 1.25h-72.955l-.59-3.75c-1.147-7.285-5.618-19.682-9.26-25.68-13.007-21.41-39.547-33.17-66.975-29.68-41.49 5.284-67.516 38.488-76.897 98.11-2.58 16.396-2.608 62.376-.05 79.394 7.928 52.705 29.68 85.686 64.18 97.314 7.412 2.498 9.252 2.7 25 2.744 19.546.055 25.095-1.03 38-7.43 18.96-9.4 31.687-27.362 39.985-56.43 1.4-4.9 2.82-10.638 3.157-12.75l.615-3.842h-89.256v-99h218v274h-119v-46.3l-4.86 6.4c-20.41 26.883-52.91 44.424-93.27 50.34-13.225 1.94-45.41 1.92-58.87-.036zm-545-245.904v-235.5h138.994l.253 176.75.252 176.75 103.25.254 103.25.255v116.991h-346v-235.5z" fill="#4b4b4b"/></svg>