<svg xmlns="http://www.w3.org/2000/svg" viewBox="0 0 511.98545 141.06741" height="141.067" width="511.985"><path d="M.01 140.326c-.36-.655 8.22-16.452 22.293-41.03l3.295-5.757 20.975-.11c11.536-.06 23.605-.402 26.82-.76l5.85-.648L68.917 73.82C51.706 43.47 53.19 46.89 55.244 42.345 59.254 33.467 78.97 0 80.19 0c.726 0 7.134 10.237 14.242 22.75l12.923 22.748-3.186 5.565c-1.754 3.062-7.644 13.53-13.09 23.263l-9.904 17.696 5.32.66c2.927.36 14.65.71 26.05.773 11.403.063 21.202.45 21.776.858.575.41 2.912 3.93 5.195 7.822 6.137 10.468 21.57 38.04 21.57 38.536 0 .237-12.173.31-27.05.16l-27.052-.268-13.092-23.006c-7.202-12.653-13.345-23-13.652-22.993-.54.013-7.456 11.722-20.6 34.875l-6.313 11.124-26.444.27c-14.543.147-26.636-.08-26.872-.506zm181.3-22.517V94.55h30.338v7.08h-7.963c-4.38 0-9.386.284-11.124.63-2.956.593-3.16.916-3.16 5.022v4.39l10.366.287 10.366.287.313 3.792.314 3.79h-21.455l.3 6.322.302 6.32 11.376.286 11.377.286V141.066H181.31V117.81zm39.016 22.38c-.317-.514-.88-10.993-1.25-23.287l-.67-22.352h9.422l.01 13.4c.004 7.37.288 15.733.63 18.586l.625 5.188 10.04.712 10.043.712-.31 3.707-.308 3.707-13.827.28c-7.698.157-14.082-.132-14.404-.652zm34.806-22.38V94.55h30.46l-.315 3.793-.314 3.792-10.87.287-10.872.287v8.96l10.367.29 10.365.287.314 3.792.313 3.79h-21.36V131.707l11.014.714 11.013.714.616 3.082c.34 1.695.617 3.48.617 3.967 0 .486-7.054.884-15.674.884H255.13V117.81zm47.022 21.376c-7.118-4.397-9.81-10.417-9.81-21.947 0-8.906 1.33-12.803 6.133-17.976 3.835-4.13 7.452-5.725 12.98-5.72 5.797.004 10.583 2.607 13.455 7.318 2.863 4.696 2.585 6.55-1.106 7.36-2.713.596-3.56.208-6.456-2.953-7.563-8.257-16.713-1.6-16.713 12.157 0 8.763 4.016 15.55 9.2 15.55 3.016 0 9.002-4.39 9.002-6.603 0-.752.38-1.602.844-1.89 1.37-.846 8.257 1.644 8.257 2.987 0 .68-1.478 3.436-3.286 6.128-2.5 3.723-4.254 5.184-7.33 6.104-6.022 1.8-11.734 1.607-15.17-.516zm42.58.282c-.338-.88-.614-9.503-.614-19.163V102.74l-5.814-.302-5.815-.303-.313-3.792-.314-3.792h33.616l-.314 3.793-.313 3.792-5.814.303-5.815.303-.006 12.34c-.004 6.784-.297 15.407-.65 19.162l-.646 6.825h-3.285c-2.063 0-3.513-.595-3.9-1.6zm26.353.925c-.37-.37-.675-10.872-.675-23.337V94.394l13.738.33 13.737.332 3.06 3.427c2.816 3.155 3.025 3.897 2.63 9.34-.43 5.975-3.392 10.997-6.483 10.997-2.542 0-2.582 2.24-.087 4.886 2.366 2.508 9.81 15.17 9.81 16.687 0 .37-1.74.674-3.87.674-4.537 0-6.045-1.4-12.323-11.454-4.275-6.846-8.337-9.926-10.386-7.876-.533.532-1.205 5.1-1.493 10.15l-.523 9.18h-3.23c-1.778 0-3.535-.303-3.905-.674zm23.412-32.088c.405-4.953-.633-5.63-8.666-5.65l-6.32-.015v10.2l7.33-.296 7.332-.297.323-3.942zm17.373 9.504V94.55h8.09v46.517h-8.09V117.81zm27.81 22.516c-3.653-.914-7.594-4.413-9.798-8.698-2.624-5.1-3.61-17.373-1.9-23.692 1.302-4.82 5.986-10.71 10.28-12.93 6.138-3.175 17.086-.686 21.01 4.777 3.04 4.233 3.218 5.736.87 7.38-3.227 2.26-4.55 1.94-8.263-1.994-4.11-4.36-8.536-4.77-12.176-1.13-7.036 7.038-4.898 26.537 3.13 28.553 3.598.903 9.06-2.067 10.726-5.832 1.457-3.29 1.393-3.27 5.766-1.746 2.857.996 3.18 1.467 2.6 3.792-1.01 4.056-5.442 9.28-9.2 10.852-3.306 1.38-9.03 1.674-13.046.668zM181.31 59.616V35.8l6.245.3 6.244.303 3.474 14.542c2.288 9.577 3.77 14.065 4.342 13.146.477-.768 2.287-7.426 4.02-14.795l3.153-13.4h12.971v46.518H213.672V66.573c0-8.713-.223-15.62-.497-15.345-.273.273-2.073 7.25-4 15.502-1.926 8.253-4.09 15.38-4.81 15.836-2.015 1.277-5.486 1.014-6.752-.512-.626-.755-2.696-7.922-4.6-15.927l-3.46-14.554-.075 15.927-.074 15.927H181.312V59.615zm48.775.3l.27-23.51 3.793-.315 3.792-.313v47.65H229.813l.272-23.51zm26.26 22.297c-.855-.855-1.213-6.674-1.213-19.72V43.99h-12.257l.313-3.793.314-3.792H276.873l.314 3.792.314 3.792h-13.267v39.438h-3.337c-1.836 0-3.884-.547-4.55-1.215zm32.508-.253c-3.895-1.694-8.44-8.11-8.44-11.914 0-2.528.344-2.8 3.56-2.8 2.845 0 3.8.525 4.748 2.605 3.367 7.39 15.962 6.945 15.962-.56 0-2.71-.562-3.114-8.5-6.11-10.258-3.87-13.796-7.134-14.424-13.3-.838-8.23 5.54-13.98 15.508-13.98 6.24 0 11.397 2.69 13.908 7.258 2.583 4.7 1.645 6.898-2.943 6.898-2.86 0-3.828-.52-4.754-2.552-1.847-4.052-10.06-4.878-12.338-1.24-1.86 2.968.522 5.115 8.767 7.91 4.22 1.43 8.417 3.216 9.326 3.97 7.013 5.82 5.51 19.354-2.61 23.512-4.156 2.127-13.22 2.282-17.767.304zm40.358-.13c-1.803-.926-4.265-3.277-5.47-5.225-2.022-3.274-2.195-4.932-2.28-21.872l-.093-18.328 4.232-.308 4.23-.308.32 17.842c.31 17.35.385 17.896 2.706 19.774 1.313 1.062 3.652 1.93 5.197 1.93s3.884-.868 5.197-1.93c2.32-1.877 2.396-2.427 2.705-19.72l.318-17.787h9.291l-.652 18.73c-.7 20.1-1.443 23.218-6.294 26.397-3.745 2.453-15.258 2.93-19.407.802zm35.135-22.01V35.9l6.32.05c12.883.107 19.844 1.384 22.61 4.148 3.714 3.716 4.32 9.795 1.44 14.456l-2.24 3.622 3.127 3.56c2.294 2.613 3.125 4.558 3.123 7.316-.002 4.946-2.87 10.517-6.24 12.115-1.484.706-8.424 1.573-15.42 1.927l-12.72.645V59.82zm23.406 13.416c2.348-1.256 2.457-5.693.202-8.184-1.31-1.45-3.174-1.85-8.595-1.85h-6.922v12.413l6.72-.688c3.696-.38 7.564-1.14 8.596-1.692zm-2.337-19.738c1.72-1.204 2.225-2.414 1.994-4.763-.352-3.59-2.304-4.48-10.17-4.645l-4.802-.1V55.11h5.337c3.25 0 6.238-.63 7.64-1.614zm20.627 6.418l.27-23.51 3.793-.315 3.793-.313v47.65h-8.128l.272-23.51zm24.056 22.382c-3.588-1.43-6.015-3.87-8.29-8.323-2.535-4.97-1.85-6.728 2.62-6.728 2.808 0 3.862.59 5.254 2.948 3.128 5.296 9.326 6.653 13.91 3.046 4.76-3.744 2.727-6.71-6.862-10.01-11.942-4.11-15.795-8.713-14.252-17.032 1.23-6.624 6.39-10.313 14.375-10.277 7.11.034 13.172 3.11 15.068 7.65 2.015 4.82 1.267 6.486-2.913 6.486-2.584 0-3.91-.715-5.624-3.034-1.81-2.448-2.986-3.033-6.1-3.033-2.573 0-4.467.672-5.688 2.02-1.698 1.878-1.71 2.156-.175 3.853.91 1.006 4.59 2.865 8.18 4.132 3.587 1.266 8.26 3.804 10.383 5.64 3.606 3.117 3.86 3.704 3.86 8.94 0 6.52-2.217 10.307-7.657 13.08-3.79 1.934-12.027 2.263-16.087.643zm32.002.455c-.37-.37-.674-11.09-.674-23.822V35.784l4.297.31 4.3.312.29 8.848.294 8.848h16.022l.292-8.847.292-8.848 3.792-.314 3.792-.313v47.65h-8.09V63.202h-16.18l-.014 7.837c-.018 11.013-.516 12.387-4.485 12.387-1.79 0-3.556-.303-3.927-.674zm42.032-22.837l.27-23.51 3.793-.315 3.792-.313v47.65H503.858l.272-23.51z" fill="#4b4b4b"/></svg>