<svg xmlns="http://www.w3.org/2000/svg" viewBox="0 0 404.10513 128.96579" height="128.966" width="404.105"><path d="M192.607 128.167c-1.17-.474-6.266-8.345-13.008-20.096-6.096-10.624-11.453-19.317-11.904-19.317-.452 0-.82 8.65-.82 19.22v19.218H66.684L47.17 113.985C36.44 106.72 27.024 100.166 26.25 99.42c-2.24-2.164-.064-2.823 11.55-3.497 5.764-.334 12.17-1.07 14.23-1.636 9.302-2.55 13.88-8.295 11.38-14.278-2.476-5.925-11.283-8.316-29.202-7.927l-12.177.264-.247 27.422-.25 27.42H0V97.775C0 71.534.168 68.22 1.553 67.07c1.24-1.025 7.075-1.283 28.828-1.272 23.23.01 28.414.272 34.95 1.763 15.345 3.5 22.464 9.197 21.58 17.267-.885 8.08-7.84 12.215-24.8 14.746-2.192.327-3.982.874-3.98 1.216.008.665 30.1 20.515 32.5 21.436.788.303 1.807-.038 2.263-.758.455-.72.835-9.21.843-18.865l.014-17.557 2.534-1.662c2.25-1.475 5.568-1.694 29.532-1.95l26.996-.286v6.56l-19.295.288c-21.906.327-21.954.345-21.954 7.968v4.04h37.5V106.565h-37.72l.393 6.158c.255 4.005.867 6.458 1.75 7.017.747.473 10.955.866 22.686.874l21.328.014v-17.812c0-16.086.168-17.98 1.736-19.55 3.12-3.12 15.778-3.603 22.92-.874 3.01 1.15 5.657 4.808 13.26 18.314 2.973 5.285 5.68 9.6 6.01 9.588.333-.012 3.558-5.318 7.168-11.79 3.61-6.475 7.874-12.94 9.477-14.366 5.46-4.86 21.106-4.652 25.4.338 2.085 2.425 2.155 3.087 2.155 20.267 0 9.768.348 17.76.773 17.76.426 0 5.246-8.124 10.713-18.053 5.468-9.93 11.012-19.06 12.323-20.292 4.832-4.54 21.92-4.553 26.304-.02 1.207 1.25 6.746 10.402 12.307 20.34 5.562 9.936 10.562 17.917 11.112 17.734.672-.224 1.082-9.762 1.248-29.083l.248-28.752h18.722v62.851l-19.337-.255-19.337-.253-3.442-6.094-3.442-6.094-15.628-.256-15.628-.257-3.546 6.57-3.545 6.57-13.83.015-13.827.016v-18.694c0-18.828-.487-21.58-3.3-18.682-.685.706-5.728 9.088-11.207 18.627-5.48 9.54-10.83 18.083-11.894 18.985-2.044 1.736-5.61 2.036-8.805.742zM285.97 98.83c-4.08-7.616-4.978-8.705-7.387-8.956-2.568-.268-3.046.26-7.538 8.332-2.637 4.74-4.795 8.77-4.795 8.957 0 .187 5.48.34 12.18.34h12.182l-4.643-8.672zm73.316 16.532c-12.754-8.744-16.93-12.074-16.38-13.058.405-.726 7.782-5.76 16.392-11.185l15.655-9.867h6.172c3.395 0 5.976.32 5.734.71-.242.39-5.74 4.082-12.22 8.203-6.477 4.12-11.79 7.825-11.803 8.23-.013.406 8.817 6.523 19.622 13.594 10.805 7.072 20.403 13.36 21.327 13.974 1.338.888-1.29 1.118-12.85 1.125l-14.53.008-17.12-11.736zM177.272 54.765C164.17 43.35 153.855 33.875 154.35 33.71c.494-.165 11.313 2.854 24.04 6.71l23.14 7.01 23.16-7.015c12.735-3.858 23.543-6.886 24.015-6.73.718.24-46.537 42.05-47.343 41.89-.147-.03-10.988-9.394-24.09-20.81zm6.244-18.76l-16.64-4.79v-4.512c0-2.987.395-4.512 1.172-4.512.645 0 8.45 2.08 17.344 4.622l16.17 4.62 16.17-4.62c8.895-2.542 16.7-4.62 17.345-4.62 1.448 0 1.63 8.043.2 8.926-1.3.804-32.987 9.842-34.182 9.75-.516-.04-8.427-2.228-17.58-4.863zm6.093-13.095L180 20.013v-4.536c0-2.495.297-4.536.66-4.536.364 0 5.215 1.29 10.782 2.868l10.12 2.866 10.12-2.866c5.568-1.577 10.42-2.867 10.783-2.867.363 0 .66 2.046.66 4.546v4.546l-10.253 2.954c-5.64 1.625-11.02 2.925-11.954 2.888-.934-.037-6.023-1.37-11.31-2.964zm7.03-12.652l-4.452-1.3V4.305c0-4.6.028-4.644 2.578-4.027 1.418.342 3.527.972 4.687 1.4 1.16.427 3.06.427 4.22 0 1.16-.428 3.268-1.058 4.686-1.4 2.552-.62 2.577-.58 2.577 4.08 0 2.588-.316 4.71-.703 4.716-.386.006-2.6.567-4.92 1.247-3.532 1.035-4.947 1.024-8.673-.065z" fill="#4b4b4b"/></svg>