<svg xmlns="http://www.w3.org/2000/svg" viewBox="0 0 551.16314 143.81587" height="143.816" width="551.163"><path d="M299.625 142.972c-14.71-2.47-21.638-8.81-22.725-20.795l-.475-5.24h27.107l.607 2.766c1.215 5.533 11.188 8.158 18.844 4.96 4.243-1.774 5.665-4.442 6.394-12 .633-6.567.022-7.977-2.264-5.223-3.933 4.74-21.25 6.092-30.772 2.405-9.26-3.586-16.24-11.73-18.81-21.947l-1.078-4.29-24.415.24-24.415.24.235 2.97c.502 6.357 5.204 10.08 12.732 10.08 3.984 0 4.914-.392 8.016-3.376 1.93-1.856 3.704-3.982 3.944-4.725.357-1.104 2.224-.627 10.254 2.62 5.4 2.182 11.156 4.632 12.79 5.443l2.973 1.474-5.38 5.87c-8.89 9.702-19.966 14.293-34.48 14.293-22.108 0-37.34-11.936-41.316-32.378-.933-4.8-1.25-5.436-1.788-3.6-1.73 5.89-5.43 18.318-7.566 25.402l-2.374 7.875h-30.108l-3.846-17.656c-2.116-9.71-4.08-19.622-4.365-22.026-.505-4.27-2.072-5.356-2.072-1.438 0 1.085-1.377 8.452-3.06 16.372-1.684 7.92-3.535 16.728-4.114 19.574l-1.053 5.175h-14.754c-13.152 0-14.84-.17-15.543-1.575-.433-.866-2.168-6.332-3.856-12.146-1.688-5.814-3.272-10.566-3.52-10.56-.247.007-1.45 2.334-2.67 5.172-4.287 9.958-15.12 17.635-29.063 20.592-4.844 1.028-9.862 1.27-19.565.948-20.48-.682-32.027-4.9-43.106-15.74C.446 98.3-.578 96.827.27 95.977c.598-.6 6.232-4.4 12.52-8.448l11.433-7.357 1.796 2.407c5.234 7.013 12.112 10.04 24.367 10.728 6.927.388 8.795.178 12.34-1.39 4.608-2.04 6.068-4.88 4.252-8.273-1.486-2.774-5.147-4.062-19.148-6.734-18.62-3.554-26.6-6.773-32.786-13.22-7.4-7.715-9.315-21.33-4.475-31.803C13.685 25.15 19.134 19.444 25.6 16.15c21.252-10.83 56.68-6.038 71.362 9.653l2.536 2.71-6.94 5.737-6.94 5.737 14.74.45 14.737.45 2.53 11.7c1.39 6.435 3.444 17.168 4.564 23.85l2.037 12.15 1.593-9.9c.876-5.445 2.908-16.177 4.517-23.85l2.925-13.95h25.943l2.508 11.7c1.38 6.435 3.445 16.965 4.59 23.4l2.083 11.7 1.143-6.75c.628-3.712 2.62-14.242 4.425-23.4l3.284-16.65 14.36-.25c7.897-.135 14.85-.06 15.448.17.84.322.795 1.4-.188 4.668-1.762 5.853-1.7 5.94 1.92 2.625 12.324-11.288 34.184-13.696 50.792-5.593 5.59 2.728 13.123 10.42 15.745 16.077 1.78 3.844 2.294 4.39 2.783 2.958 4.163-12.192 12.575-19.71 24.61-21.99 10.57-2.005 19.668-.54 25.825 4.16l4.073 3.11-.287-2.967-.288-2.968h26.1l.26 8.363.258 8.362 3.528-4.462c8.224-10.404 19.862-15.426 35.685-15.4 17.477.03 30.143 5.978 38.298 17.987 1.487 2.19 1.53 2.02 1.575-6.525l.047-8.775h28.8V49.435l3.48-3.378c5.07-4.92 11.395-6.98 21.27-6.927 12.895.068 20.32 4.345 24.93 14.357 2.003 4.354 2.08 5.443 2.35 33.525l.283 29.025h-30.712V93.13c0-14.872-.35-23.677-1-25.1-2.65-5.815-14.71-5.453-18.08.542-.8 1.423-1.23 8.69-1.466 24.74l-.335 22.725h-29.52V97.73l-2.773 4.185c-7.037 10.624-21.05 16.788-38.177 16.793-16.118.005-29.506-6.227-36.67-17.07-1.456-2.206-1.487-2.124-1.55 4.05-.245 23.626-6.874 32.66-27.09 36.912-6.858 1.442-24.298 1.646-31.89.372zm104.983-47.287c6.48-3.26 9-20.33 4.367-29.598-2.597-5.194-5.425-6.9-11.44-6.9-8.116 0-13.108 6.817-13.234 18.073-.18 16.19 8.715 24.26 20.308 18.425zM323.23 90.27c3.527-2.195 4.865-6.13 4.835-14.21-.03-8.392-.734-10.876-3.916-13.833-5.024-4.67-13.64-2.932-16.872 3.404-3.72 7.29-3.054 19.273 1.297 23.36 3.805 3.575 10.087 4.123 14.656 1.28zm-74.455-24.227c0-2.81-2.703-6.502-5.853-7.997-3.632-1.723-7.926-1.255-10.664 1.164-1.795 1.586-4.183 5.744-4.183 7.283 0 .604 3.723.944 10.35.944 8.747 0 10.35-.216 10.35-1.394zm-160.74-12.78c-1.21-3.837-2.446-8.09-2.743-9.45-.645-2.948-1.296-3.075-3.467-.676-2.168 2.396-2.73 2.3-6.753-1.144-4.295-3.675-10.306-5.814-18.45-6.564-10.236-.944-15.747 1.37-15.747 6.61 0 3.898 1.648 4.514 25.65 9.59 7.026 1.487 12.844 3.342 16.65 5.31 3.217 1.662 6.122 3.085 6.455 3.16.333.076-.385-3.002-1.596-6.838zm430.042-24.3c.3-7.187.88-10.743 2.263-13.823C524.173 6.6 532.35 1.525 544.245.306c5.528-.566 5.785-.503 6.334 1.546 1.063 3.975.603 14.84-.804 18.97-3.588 10.53-15.638 17.815-29.466 17.815h-2.634l.4-9.675z" fill="#4b4b4b"/></svg>