<svg xmlns="http://www.w3.org/2000/svg" viewBox="0 0 887.62415 218.386" height="218.386" width="887.624"><path d="M163.556 217.51c-18.046-2.652-37.545-13.205-50.565-27.366-14.553-15.83-22.158-33.806-23.626-55.847l-.577-8.672H0V0h205.312v44.894l11.485 5.63c19.143 9.387 32.347 22.414 41.438 40.882 5.766 11.714 8.016 20.373 8.668 33.36.895 17.804-1.62 30.17-9.197 45.23-10.334 20.538-30.335 37.797-51.38 44.336-12.207 3.793-29.722 5.094-42.77 3.177zm40.19-7.854c26.035-8.886 45.084-27.64 53.68-52.847 3.996-11.715 4.985-18.16 4.57-29.78-.623-17.542-6.83-34.21-18.01-48.356-5.4-6.835-15.47-16.055-20.93-19.162-10.083-5.74-26.118-11.7-31.482-11.7h-2.158l-.255-17.578-.254-17.578-85.73-.24c-47.15-.13-85.963.08-86.25.47-.285.39-.404 23.384-.262 51.098l.26 50.39h78.231l.007 15.235c.008 16.252.657 19.892 5.808 32.578 7.078 17.428 23.04 34.358 40.124 42.556 14.084 6.76 20.804 8.06 39.843 7.705 13.87-.26 16.228-.548 22.808-2.794zm-33.12-5.37c-9.613-1.02-23.462-5.78-31.64-10.87-8.863-5.52-19.81-16.477-24.72-24.742-30.614-51.53 8.515-116.15 68.27-112.747 27.206 1.55 52.214 18.233 63.02 42.042 1.637 3.608 3.33 7.22 3.763 8.023 3.177 5.91 4.378 29.902 2.037 40.726-1.583 7.32-8.102 21.013-13.392 28.13-4.785 6.434-13.967 14.692-21.173 19.04-6.108 3.687-15.78 7.673-18.617 7.673-1.17 0-2.37.392-2.666.87-.482.78-3.91 1.32-14.572 2.3-1.805.165-6.446-.035-10.313-.446zm26.09-7.356c15.866-4.34 31.258-15.78 40.395-30.024 2.62-4.085 4.765-7.703 4.765-8.04 0-.338.596-1.943 1.325-3.568 2.11-4.702 3.192-8.973 4.346-17.15 3.248-23.014-7.537-48.428-26.648-62.795-4.975-3.74-13.635-8.79-15.07-8.79-.268 0-.598 11.917-.735 26.484l-.25 26.484-2.16-6.254c-2.536-7.338-9.613-17.82-15.35-22.737-10.795-9.253-27.89-12.92-44.158-9.473-15.392 3.26-25.567 13.362-32.14 31.902-2.696 7.61-2.935 23.735-.494 33.393 6.41 25.356 26.348 45.163 51.18 50.84 3.608.826 7.405 1.7 8.436 1.947 3.905.927 19.96-.414 26.56-2.22zm-173.59-89.743c-.345-.343-.626-20.382-.626-44.53V18.75h160.312v27.856l-9.61.526c-19.907 1.092-39.777 9.875-53.796 23.782-5.645 5.6-6.26 6.373-12.16 15.27-2.814 4.243-6.4 12.103-9.12 19.988-.527 1.525-3.165 1.64-37.472 1.64-20.297 0-37.185-.28-37.53-.624zm335.985 50.547c3.196-6.058 9.838-18.58 14.76-27.824l8.952-16.808-3.608-6.63c-1.984-3.645-9.65-17.52-17.036-30.833-7.385-13.313-13.428-24.388-13.428-24.61 0-.223 3.762-.405 8.36-.405h8.362l1.827 3.047c1.004 1.676 4.04 7.266 6.75 12.422 11.322 21.563 16.303 30.47 17.04 30.47.43 0 5.88-10.337 12.11-22.97l11.33-22.97h7.892c4.92 0 7.89.374 7.89.992 0 .545-3.105 6.98-6.9 14.297-3.797 7.318-10.604 20.478-15.127 29.243-4.524 8.766-9.79 18.89-11.706 22.5-1.915 3.61-8.653 16.582-14.972 28.828l-11.49 22.266H353.3l5.81-11.016zm-54.89-30.61c-13.626-4.32-24.65-16.405-26.36-28.9l-.553-4.023 7.22-1.47c4.98-1.014 7.32-1.156 7.55-.46.18.557.772 2.74 1.31 4.85 2.16 8.45 9.966 15.164 19.47 16.75 9.95 1.66 21.152-5.55 24.112-15.516 3.965-13.355-.805-21.648-16.65-28.948-4.73-2.18-12.177-5.676-16.547-7.77-17.124-8.212-24.09-20.412-20.237-35.448 2.678-10.453 9.184-17.275 20.683-21.686 8.385-3.218 21.41-3.068 28.705.33 8.476 3.946 18.068 13.596 15.965 16.06-.535.627-3.21 2.33-5.947 3.784l-4.974 2.644-4.815-4.653c-3.813-3.685-5.84-4.873-9.74-5.71-18.598-3.988-33.18 15.1-20.457 26.78 3.258 2.99 7.972 5.404 18.916 9.682 16.144 6.312 24.806 13.008 29.068 22.47 2.948 6.544 3.3 20.414.692 27.334-4.458 11.835-12.723 19.794-24.252 23.355-6.894 2.128-17.387 2.375-23.163.543zm141.092-.247c-6.07-2.116-9.824-4.842-13.848-10.05-3.337-4.32-2.754-5.67 3.658-8.45l5.747-2.492 3.12 3.647c3.912 4.57 7.675 6.18 12.825 5.49 5.407-.724 9.123-4.83 9.123-10.082 0-4.81-1.777-6.484-13.263-12.504-13.49-7.07-16.527-9.498-19.132-15.297-4.04-8.992 1.547-22.215 11.248-26.622 5.087-2.31 14.708-2.31 19.794 0 3.76 1.71 11.015 9.093 10.487 10.676-.15.45-2.702 2.124-5.67 3.717L464 67.81l-3.153-3.057c-4.025-3.9-8.746-4.295-12.23-1.022-3.095 2.908-3.102 6.872-.018 9.956 1.29 1.292 6.694 4.38 12.006 6.86 16.128 7.53 20.91 13.333 20.116 24.405-.74 10.323-5.145 16.6-14.784 21.075-6.08 2.823-14.03 3.15-20.625.852zm101.72.246c-14.328-4.543-23.523-15.9-25.825-31.9-1-6.947.374-18.53 3.045-25.678 2.774-7.425 11.384-15.986 18.903-18.795 5.75-2.148 18.646-2.93 24.5-1.488 14.703 3.625 24.972 18.054 25.23 35.446l.084 5.76-28.595.47-28.594.468.3 2.344c1.574 12.386 10.81 21.57 21.682 21.557 7.926-.01 11.332-1.573 17.632-8.094l5.863-6.07 5.622 2.997c3.09 1.648 5.62 3.476 5.62 4.063 0 3.1-7.445 11.087-13.594 14.582-9.442 5.368-22.866 7.195-31.875 4.338zM577.92 78.83c.737-1.194-.996-5.496-3.93-9.76-6.466-9.396-21.892-10.47-31.034-2.163-2.677 2.432-5.77 8.257-5.77 10.868 0 1.865.496 1.913 20.102 1.913 11.162 0 20.337-.382 20.632-.86zm165.098 48.054c-9.577-2.94-17.407-10.428-21.758-20.81-2.38-5.678-2.612-7.268-2.63-17.95-.015-10.4.24-12.298 2.265-16.874 6.473-14.63 17.784-22.678 31.964-22.746 8.98-.043 14.945 2.282 21.56 8.406l5.58 5.167V50.626h15v75h-15v-10.5l-5.16 4.715c-8.816 8.057-20.262 10.59-31.822 7.044zm21.177-12.66c15.148-4.538 21.62-28.048 11.756-42.696-7.418-11.016-25.263-13.182-34.706-4.213-5.588 5.31-7.547 10.12-7.96 19.546-.353 8.085-.188 9.08 2.432 14.68 5.295 11.315 16.457 16.286 28.48 12.684zM491.25 95.214V64.8l-3.516-.29-3.515-.29-.277-6.798-.275-6.797H491.2l.26-14.297.26-14.297 7.24-.272 7.24-.273.26 14.335.26 14.336 6.836.277 6.837.276-.275 6.754-.274 6.755-6.797.274-6.797.276V125.625h-15V95.213zm111.584-7.09l.058-37.5h14.92v3.75c0 2.063.343 3.75.763 3.75s1.958-1.248 3.42-2.774c9.203-9.605 27.03-8.8 34.948 1.58 1.288 1.688 2.727 3.07 3.197 3.07.47 0 2.136-1.46 3.703-3.244 1.566-1.784 5.125-4.357 7.908-5.72 4.55-2.224 5.91-2.442 13.452-2.146 7.558.296 8.792.61 12.442 3.178 4.924 3.462 8.89 10.75 10.182 18.713.502 3.095.916 16.7.92 30.236l.004 24.61h-14.893l-.288-26.485c-.265-24.297-.444-26.788-2.164-30.173-2.72-5.352-5.827-7.28-11.652-7.236-6.463.05-10.18 2.343-13.15 8.113-2.34 4.543-2.394 5.106-2.854 29.972l-.47 25.34-7.177.273-7.177.273-.37-26.053c-.407-28.697-1.01-32.08-6.386-35.91-3.19-2.27-10.998-2.517-14.956-.47-7.502 3.88-9.364 12.02-9.386 41.03l-.015 21.328h-15.038l.06-37.5zm206.23 0v-37.5h15v75h-15v-37.5zm30.936.04v-37.54h14.063l.012 3.048c.008 1.676.26 3.972.565 5.104.512 1.91.76 1.782 3.502-1.804 4.26-5.57 9.81-8.222 17.208-8.222 4.955 0 9.954 1.334 12.254 3.27.414.35-5.565 11.71-6.45 12.26-.442.27-1.73-.002-2.863-.608-3.114-1.667-11.704-1.296-14.648.634-7.81 5.116-8.92 9.664-9.247 37.882l-.267 22.968-7.064.274-7.064.274v-37.54zm-28.73-63.667c-10.117-6.35-1.606-22.17 9.44-17.555 6.224 2.6 8.06 10.594 3.587 15.6-3.39 3.794-8.805 4.606-13.028 1.955z" fill="#4b4b4b"/></svg>