<svg xmlns="http://www.w3.org/2000/svg" width="880.733" height="194.68" viewBox="0 0 880.73328 194.6805"><path d="M90.715 192.576c-24.597-8.11-63.552-38.868-79.584-62.836-15.373-22.984-14.917-37.647 1.963-63.075 15.988-24.085 53.615-55.623 76.7-64.29 9.628-3.613 24.337-3.042 33.233 1.29 18.425 8.974 32.567 35.877 36.81 70.023.723 5.826 1.315 13.55 1.315 17.167v6.574l-5.718-5.48c-7.966-7.634-17.674-12.46-35.02-17.416-8.187-2.338-17.014-5.144-19.614-6.235-7.533-3.162-22.806-14.273-33.194-24.148-5.268-5.01-10.17-9.123-10.89-9.144-2.626-.074-4.313 3.074-4.3 8.025.022 9.28 8.483 23.207 24.903 40.986l7.78 8.423-9.16-3.86c-5.04-2.125-9.695-4.37-10.35-4.987-2.12-2.01-6.925-1.29-7.084 1.062-.684 10.102 9.06 20.985 30.148 33.674 5.157 3.103 7.97 5.345 6.25 4.983-8.618-1.816-17.245-2.266-18.063-.943-.477.77.16 3.5 1.41 6.063 3.248 6.644 13.677 13.252 28.53 18.077 11.456 3.72 12.135 4.113 8.138 4.697-5.708.833-6.262 3.955-1.54 8.676 4.346 4.348 14.09 7.44 24.848 7.89l7.696.32-2.072 3.618c-3.897 6.804-13.83 15.842-21.04 19.143-9.585 4.388-21.986 5.052-32.093 1.72zm242.103-45.646c-12.66-2.89-20.12-7.975-24.268-16.542-7.585-15.67 4.78-40.835 25.045-50.978 12.467-6.24 18.608-7.564 35.082-7.564 15.164 0 15.91.128 23.986 4.103 5.857 2.882 9.16 5.437 11.11 8.593 3.18 5.145 4.388 14.08 2.753 20.355l-1.12 4.302-39.3.073-39.3.073-1.1 6c-1.408 7.69 1.5 15.895 7.168 20.22 4.722 3.6 16.492 6.912 24.477 6.886 7.488-.024 19.297-2.876 28.187-6.808 3.946-1.745 7.357-3.173 7.58-3.173.222 0-.162 1.624-.854 3.61-1.354 3.884-5.282 5.836-19.237 9.558-10.564 2.818-30.687 3.464-40.208 1.29zm57.49-48.648c1.376-10.048-2.562-17.606-10.8-20.728-5.63-2.132-18.872-1.602-25.807 1.033-3.424 1.3-8.435 4.115-11.135 6.254-4.84 3.835-12.664 14.6-12.664 17.428 0 1.063 8 1.453 29.83 1.453h29.83l.747-5.438zM529.9 147.07c-5.62-2.1-9.135-8.446-8.09-14.6.41-2.405 3.804-15.354 7.543-28.773 3.74-13.42 6.798-24.81 6.798-25.312 0-.503-2.812-.914-6.25-.914-5.362 0-6.25-.345-6.25-2.437 0-2.09 1.024-2.49 7.157-2.812l7.156-.374 2.273-7.63c2.1-7.046 2.63-7.736 6.907-8.983 7.586-2.213 14.01-3.114 13.998-1.964-.004.59-1.125 4.732-2.49 9.2-1.364 4.47-2.484 8.548-2.49 9.063-.004.516 5.282.938 11.75.938 11.072 0 11.72.144 11.115 2.457-.574 2.193-1.927 2.495-12.595 2.813-11.53.343-11.984.466-12.89 3.48-3.64 12.114-12.334 43.975-13.05 47.834-1.923 10.353 4.622 15.79 17.026 14.145 4.988-.663 5.963-.485 5.4.983-.96 2.5-4.432 3.29-17.39 3.95-7.512.38-12.704.028-15.625-1.063zm65.338.333c-7.003-1.382-16.47-5.64-20.13-9.056-5.875-5.48-8.06-11.782-7.426-21.43 1.808-27.56 30.1-47.025 65.97-45.39 25.28 1.152 37.67 13.057 33.598 32.283l-1.21 5.714-39.137-.534-39.137-.533-.807 4.038c-1.523 7.61-.868 13.268 2.033 17.574 9.5 14.094 33.156 16.355 57.036 5.45 3.713-1.697 6.975-2.862 7.247-2.59.273.273.133 1.94-.31 3.706-.676 2.694-2.34 3.71-10.373 6.334-17.005 5.553-33.744 7.12-47.356 4.433zm55.417-46.875c.44-1.756.532-5.993.203-9.416-1.086-11.3-8.288-15.584-24.607-14.64-7.5.435-11.005 1.336-16.207 4.167-7.438 4.048-16.72 13.64-18.704 19.33l-1.31 3.75h59.822l.803-3.192zm150.656 46.755c-14.206-4.087-17.34-15.737-7.198-26.76 6.768-7.357 14.673-10.044 38.84-13.202 21.792-2.847 26.24-4.04 28.82-7.723 3-4.28 2.427-12.94-1.086-16.455-8.27-8.27-32.883-6.995-45.115 2.335-5.347 4.08-5.91 4.057-4.895-.194 1.28-5.364 2.58-6.32 13.435-9.885 8.61-2.83 12.462-3.356 25.166-3.446 16.872-.12 24.476 1.894 28.608 7.574 4.396 6.045 3.923 11.912-2.95 36.566-3.525 12.648-6.117 23.758-5.76 24.688.397 1.034 2.605 1.69 5.688 1.69 5.1 0 6.872 1.826 2.85 2.937-11.685 3.227-23.388 1.498-25.383-3.75-.693-1.82-1.877-2.898-2.76-2.51-20.872 9.206-35.794 11.722-48.26 8.136zm33.213-6.69c10.424-3.096 17.56-7.706 18.96-12.25 3.53-11.46 5.236-18.72 4.556-19.4-1.105-1.105-29.37 3.19-35.705 5.426-11.236 3.963-17.748 12.574-14.993 19.82 2.856 7.513 14.337 10.217 27.18 6.402zm-597.702-.31c-4.543-16.266-14.913-50.24-17.692-57.963-1.637-4.552-2.977-8.63-2.977-9.063 0-.432 4.386-.786 9.747-.786h9.745l1.473 8.59c1.273 7.423 13.483 50 14.69 51.226 1.386 1.406 14.485-12.64 34.22-36.69 5.64-6.875 12.224-14.89 14.63-17.813 4.07-4.945 4.798-5.312 10.558-5.312 3.403 0 6.188.378 6.188.838 0 .46-3.768 4.82-8.375 9.688-21.093 22.29-35.075 37.94-48.387 54.162l-8.46 10.313h-13.35l-2.007-7.187zm169.95 4.703c2.536-7.986 19.37-69.64 19.376-70.953.004-1.112 2.743-1.562 9.514-1.562 7.728 0 9.38.335 8.823 1.787-.377.983-1.067 3.822-1.534 6.31l-.85 4.522 5.794-3.91c10.54-7.115 18.43-9.235 34.507-9.275 12.552-.032 15.047.32 19.663 2.777 6.366 3.388 9.088 8.18 9.088 15.996 0 5.622-12.836 53.84-14.886 55.917-.542.55-4.636.83-9.098.625l-8.112-.374 6.046-21.25c9.1-31.987 9.235-39.448.792-43.95-6.295-3.357-22.276-3.027-30.35.626-12.757 5.772-15.916 11.07-24.71 41.454l-6.694 23.12-9.096.37c-8.716.353-9.06.26-8.27-2.23zm260.632 2.08c0-.122 3.617-13.04 8.037-28.712 4.418-15.67 9.043-32.404 10.275-37.187l2.24-8.696h9.232c8.288 0 9.143.224 8.366 2.188-.475 1.204-1.192 4.142-1.592 6.53l-.727 4.344 3.646-2.367c2.005-1.302 5.7-3.717 8.212-5.366 2.512-1.65 7.242-3.806 10.51-4.79 5.767-1.735 16.8-2.472 16.8-1.123 0 .367-1.432 3.49-3.18 6.942-2.792 5.507-3.518 6.152-5.938 5.27-1.517-.552-5.95-.97-9.852-.93-8.242.088-17.314 4.84-21.72 11.38-2.288 3.393-15.608 47.285-15.574 51.314.01 1.06-2.81 1.503-9.362 1.47-5.156-.028-9.375-.15-9.374-.27zm62.5-1.276c0-1.29 16.015-59.713 19.5-71.132.552-1.808 2.168-2.187 9.333-2.187 4.766 0 8.663.423 8.66.938-.005.516-.608 3.1-1.342 5.743-.734 2.643-1.027 5.112-.652 5.487.376.376 2.526-.722 4.78-2.44 8.315-6.337 17.505-10.07 26.355-10.71l8.51-.612-3.472 7.076c-2.555 5.21-3.975 6.87-5.384 6.286-4.082-1.688-12.18-1.958-17.31-.577-5.754 1.55-14.34 8.456-17.05 13.717-.91 1.77-4.615 13.766-8.23 26.656l-6.572 23.438h-8.564c-6.338 0-8.563-.436-8.563-1.68z" fill="#4b4b4b"/></svg>