<svg xmlns="http://www.w3.org/2000/svg" viewBox="0 0 83.066147 30.316267" height="30.316" width="83.066"><path d="M9.766 30.116c-.11-.11-.2-.38-.2-.6 0-.316.97-.4 4.622-.4 4.474 0 4.617.02 4.465.6-.148.565-.41.6-4.422.6-2.345 0-4.354-.09-4.464-.2zm20.8-.4c0-.57.2-.6 4.05-.6 3.85 0 4.05.03 4.05.6s-.2.6-4.05.6c-3.85 0-4.05-.03-4.05-.6zm17.6.4c-.11-.11-.2-.383-.2-.607 0-.33.927-.393 4.87-.326 4.364.074 4.883.137 4.973.607.092.483-.29.526-4.672.526-2.624 0-4.862-.09-4.972-.2zm18.7-.4c0-.57.2-.6 4.05-.6 3.85 0 4.05.03 4.05.6s-.2.6-4.05.6c-3.85 0-4.05-.03-4.05-.6zm-57.7-1.7c-.11-.11-.2-.38-.2-.6 0-.317 1.042-.4 5.05-.4 2.778 0 5.13.08 5.23.18.098.098.106.368.017.6-.13.337-1.13.42-5.03.42-2.676 0-4.957-.09-5.067-.2zm21.556-.09c-.452-.732.345-.91 4.084-.91 3.557 0 3.895.047 3.803.525-.09.463-.56.536-3.9.61-2.37.052-3.87-.032-3.988-.225zm16.526-.184c-.1-.26-.182-.52-.182-.572 0-.054 2.038-.116 4.53-.138 4.375-.04 5.652.186 5.2.918-.09.147-2.235.266-4.765.266-3.917 0-4.627-.07-4.782-.474zm19.757.157c-.44-.714.488-.9 4.086-.818 3.075.07 3.726.163 3.726.534 0 .372-.66.465-3.802.534-2.56.056-3.87-.026-4.01-.25zM8.28 25.522c-.154-.594-.03-.607 5.836-.607 5.547 0 5.987.04 5.893.525-.092.476-.65.534-5.836.608-5.537.078-5.74.06-5.893-.525zm22.286-.007c0-.57.2-.6 4.05-.6 3.85 0 4.05.03 4.05.6s-.2.6-4.05.6c-3.85 0-4.05-.03-4.05-.6zm15.782.126c-.1-.26-.182-.53-.182-.6 0-.07 2.093-.126 4.65-.126 2.558 0 4.65.057 4.65.126 0 .07.082.34.182.6.16.42-.35.474-4.468.474-3.963 0-4.677-.07-4.832-.474zm20.518-.126c0-.57.2-.6 4.05-.6 3.85 0 4.05.03 4.05.6s-.2.6-4.05.6c-3.85 0-4.05-.03-4.05-.6zm-59.4-2.375c0-.15-.082-.488-.182-.75-.163-.423.552-.474 6.75-.474 4.01 0 6.932.116 6.932.276 0 1.203-.12 1.224-6.932 1.224-3.79 0-6.568-.116-6.568-.275zm23.154-.4c.094-.658.195-.676 4.368-.757l4.273-.083-.345.758c-.344.756-.356.758-4.368.758-4 0-4.022-.003-3.927-.675zm14.528.202c-.38-.99-.158-1.04 4.207-.96 4.173.08 4.41.118 4.837.76l.447.674h-4.655c-3.968 0-4.682-.07-4.837-.474zm21.772-.2c.094-.66.18-.676 3.996-.676s3.902.015 3.996.675c.095.673.076.676-3.996.676s-4.09-.003-3.996-.675zM6.577 20.135c-.762-1.423-.554-1.52 3.26-1.52h3.57l.305.875c.168.482.226.954.13 1.05-.097.097-1.7.176-3.565.176-3.044 0-3.42-.06-3.7-.58zm8.09.005c0-1.454.17-1.524 3.73-1.524 1.854 0 3.448.08 3.545.176.096.096.038.57-.13 1.05l-.305.874h-3.42c-3.172 0-3.42-.042-3.42-.575zm16.014.144c-.09-.238-.118-.677-.06-.975.095-.498.577-.55 5.725-.625 3.092-.045 5.62.03 5.62.17 0 .136-.377.612-.84 1.055-.84.805-.848.806-5.56.806-3.832 0-4.75-.08-4.884-.432zm13.115-.512c-.18-.52-.33-.993-.33-1.05 0-.058 1.937-.106 4.303-.106h4.302l.348.764c.19.42.348.893.348 1.05 0 .168-1.782.286-4.32.286h-4.32zm23.19.52c-.093-.242-.123-.685-.065-.983.094-.49.48-.544 4-.544h3.896v1.8l-3.83.084c-3.15.07-3.862.006-4-.357zm-61.62-3.6c0-.235-.08-.64-.18-.9-.16-.418.27-.476 3.57-.476h3.752l.314.9.315.9H9.25c-3.153 0-3.884-.08-3.884-.425zm10.2 0c0-1.3.223-1.376 3.968-1.376 3.59 0 3.602.003 3.422.675-.1.373-.183.778-.185.9-.002.125-1.624.226-3.604.226-2.908 0-3.6-.082-3.6-.425zm15-.476v-.9H50.27l.348.764c.19.42.348.826.348.9 0 .075-4.59.136-10.2.136h-10.2zm36.3 0v-.9h8.1v1.8h-8.1zM4.17 12.766c-.123-.33-.318-.903-.434-1.275l-.21-.674h7.812l.306 1.108c.168.61.257 1.158.196 1.218-.06.06-1.76.135-3.778.167-3.42.052-3.683.016-3.892-.544zm26.526.357c-.096-.25-.13-.84-.077-1.306l.096-.85 8.943-.077c5.745-.05 8.878.03 8.762.216-.1.16.03.702.29 1.2l.47.91h-8.684c-4.775 0-8.895.082-9.155.18-.277.108-.544-.006-.647-.273zm39.978.16l-3.843-.085.094-1.116.092-1.116 3.975-.083 3.976-.084v1.19c0 .655-.1 1.233-.225 1.284-.123.05-1.953.054-4.066.008zm-54.102-.592c.573-2.053.165-1.874 4.264-1.874 2.052 0 3.73.115 3.73.256 0 .14-.148.68-.33 1.2l-.33.944h-3.74c-3.418 0-3.728-.045-3.594-.525zM2.718 8.19c-.148-.287-.358-.895-.466-1.35l-.197-.824H10.1l.198.825c.108.455.267 1.063.353 1.35.144.482-.17.526-3.753.526-3.42 0-3.943-.065-4.18-.525zm15.064 0c.085-.287.244-.895.352-1.35l.197-.824h3.87c2.126 0 3.866.086 3.866.19 0 .105-.156.713-.347 1.35l-.35 1.16H21.5c-3.547 0-3.86-.044-3.716-.525zm12.842-.75l.092-1.274 3.975-.083L38.667 6v2.716H30.53zm10.442 1.067c0-.114.356-.722.79-1.35l.792-1.14h4.91c2.7 0 4.908.075 4.908.167 0 .092-.427.7-.95 1.35l-.95 1.182h-4.75c-2.612 0-4.75-.094-4.75-.21zm25.887-.39c-.147-.563-.41-.6-4.172-.6h-4.014v-1.5h24.3v1.5h-4.05c-3.85 0-4.05.03-4.05.6s-.2.6-3.928.6c-3.676 0-3.938-.04-4.085-.6zM.61 1.806L0 0l4.24.083 4.238.083.388 1.5c.214.825.39 1.602.394 1.725.004.125-1.804.226-4.016.226H1.22zm18.692.727c.496-2.64.26-2.518 4.79-2.518h4.043l-.31.975c-.17.538-.45 1.348-.62 1.8l-.312.826H19.1zm11.264-.718v-1.8h8.1v3.6h-8.1zm14.554.975c.268-.452.85-1.266 1.292-1.807L47.216 0l5.21.083 5.208.083-1.42 1.725-1.42 1.726H44.63zm13.646-.974v-1.8h24.3v3.6h-24.3z" fill="#4b4b4b"/></svg>